<?xml version="1.0" encoding="utf-8"?>
<!-- Generator: Adobe Illustrator 24.3.0, SVG Export Plug-In . SVG Version: 6.00 Build 0)  -->
<svg version="1.1" id="Livello_1" xmlns="http://www.w3.org/2000/svg" xmlns:xlink="http://www.w3.org/1999/xlink" x="0px" y="0px"
	 viewBox="0 0 99.1 99.1" style="enable-background:new 0 0 99.1 99.1;" xml:space="preserve">
<style type="text/css">
	.st0{fill:#FFFFFF;}
</style>
<path class="st0" d="M78.4,74.8l1.5-0.4v7.8c-0.6,0.3-1.3,0.6-1.9,0.7c-0.7,0.1-1.4,0.2-2.2,0.4c-0.8,0.2-1.7,0.2-2.5,0.2
	c-1.9,0.1-3.7-0.3-5.4-1c-1.3-0.6-2.5-1.4-3.5-2.4c-0.9-0.9-1.6-1.9-2.1-3c-0.4-0.9-0.8-1.8-1-2.8c-0.9,1-1.8,1.9-2.8,2.8
	c-1.3,1.2-2.7,2.2-4.3,3c-1.8,1-3.8,1.8-5.8,2.4c-2.3,0.7-4.7,1.1-7.1,1c-3.3,0.1-6.6-0.5-9.8-1.6c-2.6-1-4.9-2.4-6.9-4.3
	c-1.8-1.7-3.2-3.7-4.1-6c-0.9-2.1-1.3-4.4-1.3-6.7c0-4.1,0.8-7.5,2.5-10.1c1.6-2.5,3.9-4.6,6.5-6.1c2.8-1.5,5.8-2.6,8.9-3.3
	c3.3-0.7,6.4-1.4,9.5-2c1.3-0.2,2.7-0.4,4.4-0.7c1.6-0.2,3.2-0.6,4.7-1.2c1.4-0.5,2.6-1.3,3.7-2.3c1-1.1,1.6-2.6,1.5-4.1
	c0.1-2.8-1.1-5.6-3.3-7.4S52.3,25,48.3,25c-4.3,0-7.7,1.2-10,3.5c-2.5,2.6-4.1,6-4.7,9.5L22,35.9c0.3-1.8,0.8-3.5,1.3-5.2
	c0.8-2.5,2.2-4.8,3.9-6.7c2.2-2.5,5-4.5,8-5.9c3.4-1.7,7.8-2.5,13.2-2.5c3.2,0,6.4,0.4,9.5,1.1c2.8,0.6,5.4,1.9,7.6,3.6
	c2.1,1.7,3.9,3.9,5,6.4c1.3,3,2,6.2,1.9,9.5V71c0,2.9,1.1,4.3,3.4,4.3C76.7,75.2,77.6,75,78.4,74.8z M60.9,57.9V47.7
	c-1.1,0.5-2.1,0.9-3.3,1.2c-1.3,0.4-2.6,0.8-3.9,1.2c-1.3,0.4-2.6,0.8-3.9,1.1s-2.4,0.6-3.3,0.8c-5.4,1.3-9.3,2.8-11.7,4.4
	c-2.5,1.6-3.9,4.5-3.7,7.4c0,3.7,1.2,6.2,3.6,7.7c2.5,1.5,5.5,2.3,8.4,2.2c4.5,0.1,8.9-1.3,12.5-4.1C59.2,67,60.9,63,60.9,57.9z"/>
</svg>
