<?xml version="1.0" encoding="utf-8"?>
<!-- Generator: Adobe Illustrator 24.3.0, SVG Export Plug-In . SVG Version: 6.00 Build 0)  -->
<svg version="1.1" id="Livello_1" xmlns="http://www.w3.org/2000/svg" xmlns:xlink="http://www.w3.org/1999/xlink" x="0px" y="0px"
	 viewBox="0 0 99.1 99.1" style="enable-background:new 0 0 99.1 99.1;" xml:space="preserve">
<style type="text/css">
	.st0{fill:#FFFFFF;}
</style>
<path class="st0" d="M61.7,47.7c1.7,0.2,3.4,0.6,5,1.2c1.8,0.7,3.4,1.7,4.9,3c1.6,1.4,2.9,3.1,3.8,5.1c1.1,2.4,1.6,4.9,1.5,7.5
	c0.1,3-0.6,5.9-1.8,8.6c-1.2,2.3-2.8,4.4-4.9,5.9c-2.2,1.6-4.6,2.7-7.2,3.4c-2.9,0.7-5.8,1.1-8.8,1.1H22.1V15.6H52
	c2.9,0,5.8,0.3,8.6,0.9c2.5,0.5,4.8,1.5,6.9,2.9c2,1.4,3.6,3.3,4.6,5.5c1.2,2.7,1.8,5.7,1.7,8.7c0.1,3.4-1.1,6.7-3.2,9.3
	C68.3,45.4,65.2,47.1,61.7,47.7z M35.1,26.3v16.5l15.3-0.2c3.4,0,6-0.7,7.8-2.1c1.8-1.5,2.8-3.7,2.6-6c0-2.7-0.9-4.8-2.6-6.2
	c-1.8-1.4-4.3-2.1-7.7-2.1L35.1,26.3L35.1,26.3z M51.8,72.8c1.6,0,3.1-0.2,4.7-0.5c1.4-0.3,2.7-0.8,3.8-1.7c1.1-0.8,2-1.9,2.6-3.1
	c0.7-1.5,1-3.1,1-4.7c0-3.3-1-5.8-3.1-7.6c-2-1.8-5-2.6-8.9-2.6H35.1v20.1L51.8,72.8L51.8,72.8z"/>
</svg>
