<?xml version="1.0" encoding="utf-8"?>
<!-- Generator: Adobe Illustrator 24.3.0, SVG Export Plug-In . SVG Version: 6.00 Build 0)  -->
<svg version="1.1" id="Livello_1" xmlns="http://www.w3.org/2000/svg" xmlns:xlink="http://www.w3.org/1999/xlink" x="0px" y="0px"
	 viewBox="0 0 99.1 99.1" style="enable-background:new 0 0 99.1 99.1;" xml:space="preserve">
<style type="text/css">
	.st0{fill:#FFFFFF;}
</style>
<path class="st0" d="M51.3,75.5c4.7,0.2,9.4-1.3,13.1-4.2c3.7-3.1,6.2-7.3,7.3-11.9l8.4,2.7c-1.5,6.2-5.2,11.7-10.4,15.5
	c-5.4,3.9-11.9,6-18.5,5.8c-4.9,0.1-9.9-0.9-14.4-3c-3.8-1.8-7.2-4.5-10-7.7c-2.7-3.2-4.7-6.9-5.9-10.9c-1.3-4-1.9-8.1-1.9-12.3
	s0.7-8.4,1.9-12.4c1.2-4,3.2-7.7,5.9-10.9c2.8-3.2,6.2-5.8,10.1-7.6c4.4-2.1,9.3-3.1,14.2-3c6.7-0.1,13.2,1.9,18.6,5.8
	c5.2,3.8,8.9,9.3,10.4,15.6l-8.6,2.4c-1.1-4.6-3.7-8.7-7.3-11.8c-3.7-2.9-8.3-4.4-13-4.2c-6.7,0-12,2.3-15.8,7s-5.8,11-5.8,19
	c0,8.1,1.9,14.5,5.8,19.1S44.6,75.5,51.3,75.5z"/>
</svg>
