<?xml version="1.0" encoding="utf-8"?>
<!-- Generator: Adobe Illustrator 24.3.0, SVG Export Plug-In . SVG Version: 6.00 Build 0)  -->
<svg version="1.1" id="Livello_1" xmlns="http://www.w3.org/2000/svg" xmlns:xlink="http://www.w3.org/1999/xlink" x="0px" y="0px"
	 viewBox="0 0 99.1 99.1" style="enable-background:new 0 0 99.1 99.1;" xml:space="preserve">
<style type="text/css">
	.st0{fill:#FFFFFF;}
</style>
<path class="st0" d="M79.7,46.8v5.6H29.8c0.3,3,0.9,6,1.9,8.8c0.9,2.7,2.3,5.2,4.1,7.3s4,3.8,6.5,5c2.8,1.3,5.8,1.9,8.9,1.9
	c9.5,0,15.9-4.4,19.2-13.3l8.9,2.4c-1.8,5.8-5.5,10.8-10.7,14.1c-5.1,3.2-11,4.9-17,4.8c-4.9,0.1-9.8-0.9-14.4-2.8
	c-4.5-2-8.3-5.2-11.1-9.2c-2.4-3.4-4.2-7.2-5.3-11.3c-1-4-1.5-8.1-1.4-12.3c0-3.5,0.6-6.9,1.6-10.2s2.5-6.5,4.4-9.5
	c2.8-4.1,6.5-7.4,10.9-9.5c4.5-2,9.3-3,14.2-3c4.2-0.1,8.3,0.8,12.1,2.4c3.5,1.6,6.6,3.9,9.2,6.7c2.5,2.9,4.5,6.3,5.8,9.9
	C79.1,38.6,79.8,42.7,79.7,46.8z M30.1,45.8h39.4c-0.2-2.8-0.7-5.6-1.6-8.3c-0.8-2.6-2-5-3.6-7.1c-1.6-2.1-3.6-3.8-5.8-5
	c-2.5-1.3-5.4-1.9-8.2-1.9c-2.9-0.1-5.8,0.5-8.5,1.8c-2.4,1.1-4.4,2.8-6.1,4.9s-2.9,4.5-3.8,7.1C31,40.1,30.4,42.9,30.1,45.8z"/>
</svg>
