<?xml version="1.0" encoding="utf-8"?>
<!-- Generator: Adobe Illustrator 24.3.0, SVG Export Plug-In . SVG Version: 6.00 Build 0)  -->
<svg version="1.1" id="Livello_1" xmlns="http://www.w3.org/2000/svg" xmlns:xlink="http://www.w3.org/1999/xlink" x="0px" y="0px"
	 viewBox="0 0 99.1 99.1" style="enable-background:new 0 0 99.1 99.1;" xml:space="preserve">
<style type="text/css">
	.st0{fill:#FFFFFF;}
</style>
<path class="st0" d="M51.8,31.5v5.8h12.5v7H51.8v39.1h-9.5V44.3h-8.6v-7h8.6v-6.5c-0.3-2.8,0.4-5.7,1.8-8.2c1.2-2.1,3-3.9,5.2-5.1
	c1.2-0.7,2.4-1.2,3.7-1.5c1.3-0.3,2.6-0.4,4-0.4c2.9,0,5.8,0.7,8.3,2.1l-2,7l-1.7-0.6c-0.5-0.1-1-0.3-1.6-0.4
	c-0.6-0.1-1.2-0.2-1.7-0.2c-0.7,0-1.3,0.1-2,0.2c-0.8,0.2-1.5,0.5-2.1,1.1c-0.8,0.7-1.3,1.5-1.7,2.5C51.9,28.6,51.7,30.1,51.8,31.5z
	"/>
</svg>
