<?xml version="1.0" encoding="utf-8"?>
<!-- Generator: Adobe Illustrator 24.3.0, SVG Export Plug-In . SVG Version: 6.00 Build 0)  -->
<svg version="1.1" id="Livello_1" xmlns="http://www.w3.org/2000/svg" xmlns:xlink="http://www.w3.org/1999/xlink" x="0px" y="0px"
	 viewBox="0 0 99.1 99.1" style="enable-background:new 0 0 99.1 99.1;" xml:space="preserve">
<style type="text/css">
	.st0{fill:#FFFFFF;}
</style>
<path class="st0" d="M47.9,58.7V48.1h33.6v34.1h-9l-1.2-8.8c-1.6,1.9-3.4,3.5-5.4,5s-4.1,2.7-6.4,3.6c-2.6,1-5.5,1.6-8.3,1.5
	c-4.6,0-9.2-0.8-13.5-2.4c-4-1.5-7.7-3.9-10.8-6.9s-5.5-6.7-7.2-10.7c-1.9-4.5-2.8-9.2-2.7-13.9c0-4.7,0.8-9.3,2.6-13.6
	c1.7-4,4.1-7.7,7.2-10.8s6.7-5.5,10.8-7.1c4.3-1.7,8.9-2.5,13.5-2.5c7.3,0,13.7,1.8,19.2,5.4s9.5,8.8,11.9,15.7l-11.8,3.2
	c-1.4-4-3.9-7.4-7.3-9.9c-3.4-2.5-7.4-3.7-12.2-3.7c-3.2-0.1-6.4,0.5-9.4,1.7c-2.6,1.1-4.8,2.7-6.6,4.8c-1.8,2.2-3.2,4.7-4,7.4
	c-0.9,3-1.4,6.2-1.3,9.3c0,3.2,0.4,6.4,1.3,9.4c0.8,2.7,2.2,5.2,4,7.3s4.1,3.7,6.6,4.8c3,1.2,6.2,1.8,9.4,1.7
	c4.9,0,9.1-1.2,12.4-3.7c3.4-2.6,5.9-6.2,7.2-10.3C70.5,58.7,47.9,58.7,47.9,58.7z"/>
</svg>
