<?xml version="1.0" encoding="utf-8"?>
<!-- Generator: Adobe Illustrator 24.3.0, SVG Export Plug-In . SVG Version: 6.00 Build 0)  -->
<svg version="1.1" id="Livello_1" xmlns="http://www.w3.org/2000/svg" xmlns:xlink="http://www.w3.org/1999/xlink" x="0px" y="0px"
	 viewBox="0 0 99.1 99.1" style="enable-background:new 0 0 99.1 99.1;" xml:space="preserve">
<style type="text/css">
	.st0{fill:#FFFFFF;}
</style>
<path class="st0" d="M56.2,35.3c6,0,10.4,1.7,13.2,5.2c2.9,3.4,4.3,7.9,4.3,13.5v29.5H57.6V55.6c0.1-2.1-0.5-4.3-1.6-6.1
	c-1.1-1.5-2.8-2.3-5.3-2.3c-2.3,0-4.5,0.9-6.2,2.5c-1.9,1.7-2.9,4.1-2.8,6.7l-0.1,27H25.4V15.6h16.1V45c1.2-2.9,3.3-5.3,5.9-6.9
	C50,36.3,53.1,35.3,56.2,35.3z"/>
</svg>
