<?xml version="1.0" encoding="utf-8"?>
<!-- Generator: Adobe Illustrator 24.3.0, SVG Export Plug-In . SVG Version: 6.00 Build 0)  -->
<svg version="1.2" baseProfile="tiny" id="Livello_1"
	 xmlns="http://www.w3.org/2000/svg" xmlns:xlink="http://www.w3.org/1999/xlink" x="0px" y="0px" viewBox="0 0 99.1 99.1"
	 overflow="visible" xml:space="preserve">
<path fill="#FFFFFF" d="M99.1,41.7v41.7H85.4V43.1c0-4.9-1.1-8.8-3.3-11.8c-2.2-3-5.5-4.5-10.1-4.5c-4.2,0-8.2,1.7-11.1,4.8
	c-3.1,3.2-4.7,7.5-4.7,13v38.8H42.6V43.1c0-5-1.1-8.9-3.3-11.8s-5.5-4.4-10.1-4.4c-4.2,0-8.2,1.7-11,4.8c-3.1,3.2-4.6,7.5-4.6,12.8
	v39L0,83.3V17h11.5l2.1,11.8c1.5-3.9,4.2-7.3,7.8-9.5c3.8-2.4,8.1-3.7,12.6-3.7c6,0,10.3,1.3,13.1,4C50,22.3,52,25.8,53,29.7
	c0.9-3,2.6-5.7,5-7.8c2.1-1.8,4.4-3.2,7-4.2c2.2-0.9,4.4-1.5,6.7-1.7c2.1-0.3,3.5-0.4,4.5-0.4c3.6-0.1,7.2,0.5,10.5,1.9
	c2.8,1.2,5.2,3,7.1,5.4c1.9,2.5,3.3,5.3,4,8.3C98.7,34.6,99.1,38.1,99.1,41.7z"/>
</svg>
