<?xml version="1.0" encoding="utf-8"?>
<!-- Generator: Adobe Illustrator 24.3.0, SVG Export Plug-In . SVG Version: 6.00 Build 0)  -->
<svg version="1.1" id="Livello_1" xmlns="http://www.w3.org/2000/svg" xmlns:xlink="http://www.w3.org/1999/xlink" x="0px" y="0px"
	 viewBox="0 0 99.1 99.1" style="enable-background:new 0 0 99.1 99.1;" xml:space="preserve">
<style type="text/css">
	.st0{fill:#FFFFFF;}
</style>
<path class="st0" d="M58.7,15.6c8.2,0,14.4,2.4,18.5,7.3s6.2,11.1,6.2,18.8v41.8H60.7V44.1c0.1-3-0.6-6-2.2-8.5
	c-1.5-2.1-3.9-3.2-7.4-3.2c-3.2,0-6.4,1.2-8.7,3.5c-2.6,2.4-4,5.7-3.9,9.3l-0.2,38.3H15.7V17.3h20.5l2.1,11.8c1.7-4,4.6-7.3,8.2-9.6
	C50.2,17,54.4,15.6,58.7,15.6z"/>
</svg>
