<?xml version="1.0" encoding="utf-8"?>
<!-- Generator: Adobe Illustrator 24.3.0, SVG Export Plug-In . SVG Version: 6.00 Build 0)  -->
<svg version="1.1" id="Livello_1" xmlns="http://www.w3.org/2000/svg" xmlns:xlink="http://www.w3.org/1999/xlink" x="0px" y="0px"
	 viewBox="0 0 99.1 99.1" style="enable-background:new 0 0 99.1 99.1;" xml:space="preserve">
<style type="text/css">
	.st0{fill:#FFFFFF;}
</style>
<path class="st0" d="M49.5,15.6c4.7-0.1,9.4,0.8,13.8,2.6c4,1.6,7.7,4.1,10.8,7.2c3,3.1,5.4,6.8,6.9,10.8c1.7,4.2,2.5,8.8,2.5,13.4
	s-0.8,9.1-2.4,13.4c-1.6,4-3.9,7.6-6.9,10.7c-3.1,3.1-6.7,5.5-10.8,7.2c-4.4,1.8-9.1,2.6-13.8,2.6c-4.7,0.1-9.4-0.8-13.8-2.6
	c-4-1.6-7.7-4.1-10.8-7.2c-3.1-3.1-5.5-6.7-7.1-10.8c-1.6-4.2-2.4-8.7-2.4-13.3s0.8-9.2,2.4-13.4c1.6-4,3.9-7.7,6.9-10.8
	c3.1-3.1,6.7-5.5,10.8-7.2C40.1,16.4,44.7,15.5,49.5,15.6z M49.6,67.2c3.5,0.1,6.8-1.8,8.6-4.9c2.1-3.2,3.1-7.5,3.1-12.7
	s-1-9.5-3.1-12.8c-1.7-3.1-5-5-8.6-5c-3.7-0.2-7.2,1.7-8.9,4.9c-1.9,3.3-2.9,7.6-2.9,12.8s1,9.5,2.9,12.7
	C42.5,65.5,46,67.4,49.6,67.2z"/>
</svg>
