<?xml version="1.0" encoding="utf-8"?>
<!-- Generator: Adobe Illustrator 24.3.0, SVG Export Plug-In . SVG Version: 6.00 Build 0)  -->
<svg version="1.1" id="Livello_1" xmlns="http://www.w3.org/2000/svg" xmlns:xlink="http://www.w3.org/1999/xlink" x="0px" y="0px"
	 viewBox="0 0 99.1 99.1" style="enable-background:new 0 0 99.1 99.1;" xml:space="preserve">
<style type="text/css">
	.st0{fill:#FFFFFF;}
</style>
<g>
	<path class="st0" d="M46.1,73.2c2.1,0.6,4.7,1.7,7.8,3.1c3.1,1.4,6.2,2.9,9.5,4.4c3.2,1.5,6.4,2.9,9.5,4.1c3.1,1.2,5.7,1.8,7.9,1.9
		l1.3,8.1c-1.5,0-3.2-0.2-5.1-0.6c-1.7-0.3-3.6-0.8-5.8-1.5c-2.1-0.7-4.6-1.7-7.2-3c-3.8-1.8-7.3-3.5-10.4-5
		c-3.1-1.5-6.2-2.8-9.1-3.7c-1.9-0.6-3.8-1-5.6-1c-2.6,0-5,0.6-7.3,1.8s-4.4,3-6.3,5.2l-4.2-7.1c2.1-3,4.5-5.2,7.1-6.6
		c2.6-1.4,5.4-2.1,8.4-2.1c0.3,0,0.6,0,0.8,0.1c0.3,0,0.6,0.1,0.8,0.1c-3.4-1.1-6.4-2.7-9.1-4.8s-5-4.5-7-7.4
		c-1.9-2.9-3.4-6-4.4-9.5c-1-3.5-1.5-7.1-1.5-11c0-4.9,0.8-9.5,2.4-13.7s3.9-7.9,6.9-11S32,8.5,36.1,6.7s8.7-2.6,13.7-2.6
		S59.4,5,63.5,6.7c4.1,1.8,7.7,4.2,10.6,7.3c3,3.1,5.2,6.8,6.9,11s2.4,8.8,2.4,13.7s-0.8,9.4-2.4,13.6s-3.9,7.9-6.9,10.9
		c-3,3.1-6.5,5.5-10.6,7.2c-4.1,1.8-8.7,2.6-13.7,2.6c-0.6,0-1.3,0-1.9-0.1c-0.6,0-1.3-0.1-1.9-0.2L46.1,73.2z M26.3,38.8
		c0,4,0.5,7.6,1.6,10.8c1.1,3.2,2.6,6,4.6,8.2c2,2.3,4.5,4,7.3,5.2c2.9,1.2,6.1,1.8,9.7,1.8s6.8-0.6,9.7-1.8
		c2.9-1.2,5.3-2.9,7.3-5.2c2-2.3,3.5-5,4.6-8.2c1.1-3.2,1.6-6.8,1.6-10.8s-0.5-7.6-1.6-10.8c-1.1-3.2-2.6-6-4.6-8.2
		c-2-2.3-4.5-4-7.3-5.2c-2.9-1.2-6.1-1.8-9.7-1.8c-3.6,0-6.8,0.6-9.7,1.8c-2.9,1.2-5.3,2.9-7.3,5.2s-3.5,5-4.6,8.2
		C26.8,31.1,26.3,34.8,26.3,38.8z"/>
</g>
</svg>
