<?xml version="1.0" encoding="utf-8"?>
<!-- Generator: Adobe Illustrator 24.3.0, SVG Export Plug-In . SVG Version: 6.00 Build 0)  -->
<svg version="1.1" id="Livello_1" xmlns="http://www.w3.org/2000/svg" xmlns:xlink="http://www.w3.org/1999/xlink" x="0px" y="0px"
	 viewBox="0 0 99.1 99.1" style="enable-background:new 0 0 99.1 99.1;" xml:space="preserve">
<style type="text/css">
	.st0{fill:#FFFFFF;}
</style>
<path class="st0" d="M77,64.5c0,2.7-0.6,5.4-1.8,7.8c-1.2,2.4-3,4.4-5.2,6c-2.5,1.8-5.2,3-8.1,3.8c-3.5,0.9-7.1,1.3-10.8,1.3
	s-7.3-0.5-10.9-1.5c-3.1-0.9-6.1-2.3-8.7-4.1c-2.5-1.7-4.6-3.9-6.2-6.5s-2.7-5.5-3.2-8.5l8.8-2.1c0.3,1.9,1,3.7,1.9,5.3
	c1.1,1.8,2.4,3.4,4.1,4.7c1.8,1.4,3.9,2.6,6.1,3.3c2.6,0.9,5.3,1.3,8,1.2c2.2,0,4.4-0.3,6.6-0.8c1.9-0.5,3.6-1.2,5.3-2.2
	c1.4-0.8,2.6-2,3.5-3.3c0.8-1.2,1.3-2.6,1.3-4.1c0.1-2.6-1-5.1-3.1-6.8c-2-1.6-5.3-2.9-9.9-3.7l-13-2.4c-12-2.1-18-7.9-18-17.2
	c0-5.9,2.2-10.5,6.6-13.9c4.4-3.5,10.5-5.2,18.2-5.2c3.6,0,7.1,0.3,10.6,1c2.7,0.6,5.3,1.6,7.7,3.1c2.1,1.4,3.9,3.2,5.2,5.4
	c1.5,2.6,2.5,5.3,3.2,8.2l-8.8,2.1c-0.9-4.1-2.8-7.2-5.7-9c-2.9-1.8-6.9-2.8-12-2.8c-4.8,0-8.7,1-11.5,2.9c-2.8,1.9-4.3,4.5-4.3,7.7
	c0,1.5,0.5,3,1.5,4.1c1,1.1,2.2,2.1,3.6,2.8c1.3,0.7,2.8,1.3,4.3,1.7s2.7,0.7,3.6,0.9l11.8,2.2c2.6,0.5,5.3,1.2,7.8,2
	c2.2,0.7,4.3,1.8,6.1,3.3c1.7,1.4,3.1,3.2,3.9,5.3C76.6,59,77,61.8,77,64.5z"/>
</svg>
