<?xml version="1.0" encoding="utf-8"?>
<!-- Generator: Adobe Illustrator 24.3.0, SVG Export Plug-In . SVG Version: 6.00 Build 0)  -->
<svg version="1.1" id="Livello_1" xmlns="http://www.w3.org/2000/svg" xmlns:xlink="http://www.w3.org/1999/xlink" x="0px" y="0px"
	 viewBox="0 0 99.1 99.1" style="enable-background:new 0 0 99.1 99.1;" xml:space="preserve">
<style type="text/css">
	.st0{fill:#FFFFFF;}
</style>
<path class="st0" d="M52.8,37.9v31.5c0,1,0.1,1.9,0.4,2.8c0.2,0.8,0.6,1.5,1.1,2.2c1.2,1.1,2.9,1.7,4.5,1.6c1,0,2-0.1,3-0.3
	c0.9-0.2,1.7-0.5,2.6-0.8l1-0.3l0.7,7.3l-0.7,0.2l-3,0.8c-1.3,0.3-2.7,0.5-4.1,0.5h-0.1c-4.7,0-8.3-1.3-10.8-4
	c-2.6-2.6-3.8-6.2-3.8-10.6V37.9H32v-6.5h1.2c2.2,0.1,4.3-0.2,6.4-0.8c1.4-0.4,2.6-1.3,3.4-2.6c0.8-1.4,1.3-2.9,1.3-4.5
	c0.2-1.9,0.2-4.1,0.2-6.7v-1.2h8.1c0.2,2.3,0.2,4.7,0.1,7c-0.1,1.6-0.3,3.2-0.5,4.8c-0.2,1.3-0.5,2.7-0.9,4H67v6.5H52.8z"/>
</svg>
