<?xml version="1.0" encoding="utf-8"?>
<!-- Generator: Adobe Illustrator 24.3.0, SVG Export Plug-In . SVG Version: 6.00 Build 0)  -->
<svg version="1.1" id="Livello_1" xmlns="http://www.w3.org/2000/svg" xmlns:xlink="http://www.w3.org/1999/xlink" x="0px" y="0px"
	 viewBox="0 0 99.1 99.1" style="enable-background:new 0 0 99.1 99.1;" xml:space="preserve">
<style type="text/css">
	.st0{fill:#FFFFFF;}
</style>
<path class="st0" d="M76.5,15.6v41.2c0,4.9-0.7,9-2.1,12.4c-1.3,3.2-3.2,6-5.8,8.2c-2.5,2.1-5.4,3.7-8.6,4.6c-3.4,1-7,1.4-10.6,1.4
	c-3.6,0-7.1-0.5-10.5-1.4c-3.2-0.9-6.1-2.5-8.6-4.6c-2.5-2.3-4.5-5.1-5.8-8.2c-1.3-3.4-2-7.5-2-12.4V15.6h9.7v38.7
	c0,7.2,1.4,12.4,4.2,15.7c2.8,3.3,7.1,5,13,5c5.8,0,10.2-1.7,13-5c2.8-3.3,4.3-8.5,4.3-15.6V15.6H76.5z"/>
</svg>
