<?xml version="1.0" encoding="utf-8"?>
<!-- Generator: Adobe Illustrator 24.3.0, SVG Export Plug-In . SVG Version: 6.00 Build 0)  -->
<svg version="1.1" id="Livello_1" xmlns="http://www.w3.org/2000/svg" xmlns:xlink="http://www.w3.org/1999/xlink" x="0px" y="0px"
	 viewBox="0 0 99.1 99.1" style="enable-background:new 0 0 99.1 99.1;" xml:space="preserve">
<style type="text/css">
	.st0{fill:#FFFFFF;}
</style>
<path class="st0" d="M73.3,15.6l-20,51.2c-1.1,2.8-2.1,5.2-3.2,7.4c-0.9,2-2.2,3.9-3.7,5.5c-1.4,1.4-3.1,2.4-5,2.9s-3.9,0.8-5.8,0.8
	c-0.9,0-1.8-0.1-2.6-0.2c-0.7-0.1-1.4-0.2-2.1-0.4c-0.7-0.1-1.3-0.3-1.9-0.4v-7.2c0.5,0.2,1,0.5,1.5,0.7c0.6,0.2,1.2,0.3,1.9,0.4
	c0.8,0.1,1.7,0.2,2.5,0.2c1.2,0,2.4-0.1,3.6-0.5c0.9-0.4,1.6-0.9,2.2-1.7c0.7-0.9,1.2-1.9,1.6-3c0.5-1.2,1-2.7,1.7-4.5l0.8-2
	l-19-49.2h9l14.5,37.3h0.4l14.5-37.3C64.2,15.6,73.3,15.6,73.3,15.6z"/>
</svg>
