<?xml version="1.0" standalone="no"?>
<!DOCTYPE svg PUBLIC "-//W3C//DTD SVG 20010904//EN"
 "http://www.w3.org/TR/2001/REC-SVG-20010904/DTD/svg10.dtd">
<svg version="1.0" xmlns="http://www.w3.org/2000/svg"
 width="200.000000pt" height="200.000000pt" viewBox="0 0 200.000000 200.000000"
 preserveAspectRatio="xMidYMid meet">
<metadata>
Created by potrace 1.11, written by Peter Selinger 2001-2013
</metadata>
<g transform="translate(0.000000,200.000000) scale(0.100000,-0.100000)"
fill="#000000" stroke="none">
<path d="M0 1000 l0 -1000 1000 0 1000 0 0 1000 0 1000 -1000 0 -1000 0 0
-1000z m1451 519 c74 -21 142 -68 181 -125 27 -39 62 -123 54 -131 -5 -5 -109
-33 -112 -30 -1 1 -17 31 -36 67 -30 57 -40 68 -92 95 -56 28 -67 30 -170 30
-105 0 -114 -2 -165 -31 -63 -35 -91 -79 -91 -139 1 -47 15 -75 52 -104 40
-32 96 -49 266 -82 177 -34 242 -56 294 -99 74 -62 105 -185 73 -296 -22 -77
-95 -151 -179 -183 -152 -57 -374 -39 -501 39 -54 34 -131 125 -149 176 -24
72 -22 80 28 93 67 17 72 15 90 -32 25 -67 79 -122 154 -159 62 -31 73 -33
172 -33 99 0 108 2 160 31 73 41 100 82 100 150 0 43 -5 59 -27 85 -39 46 -87
64 -273 99 -193 37 -252 58 -307 105 -126 108 -115 313 21 416 109 82 293 106
457 58z m-871 -89 c0 -55 1 -100 3 -100 2 0 43 14 92 30 49 17 90 30 91 30 6
0 27 -80 23 -84 -2 -1 -44 -15 -92 -30 -64 -20 -86 -30 -79 -39 83 -110 102
-137 102 -144 0 -5 -14 -20 -32 -33 l-31 -23 -24 29 c-13 16 -38 50 -56 76
-17 26 -34 47 -37 48 -3 0 -25 -30 -49 -66 -61 -88 -64 -90 -100 -63 -17 13
-31 25 -31 29 0 3 23 36 50 74 28 38 50 72 50 77 0 4 -38 20 -85 35 -47 16
-85 33 -85 40 0 11 20 74 24 74 1 0 39 -13 84 -30 46 -16 85 -30 87 -30 3 0 5
42 5 93 0 52 3 97 7 100 3 4 24 7 45 7 l38 0 0 -100z"/>
</g>
</svg>
