<?xml version="1.0" encoding="utf-8"?>
<!-- Generator: Adobe Illustrator 24.0.1, SVG Export Plug-In . SVG Version: 6.00 Build 0)  -->
<svg version="1.1" id="Group_66" xmlns="http://www.w3.org/2000/svg" xmlns:xlink="http://www.w3.org/1999/xlink" x="0px" y="0px"
	 viewBox="0 0 752.93 753.27" style="enable-background:new 0 0 752.93 753.27;" xml:space="preserve">
<style type="text/css">
	.st0{fill:#CA4543;}
</style>
<path class="st0" d="M257.67,39.39c1.8-0.31,3.62-0.49,5.44-0.53c1.58-0.05,3.16,0.2,4.65,0.72c1.44,0.52,2.73,1.37,3.78,2.47
	c1.26,1.4,2.22,3.04,2.81,4.83c0.8,1.98,1.02,4.16,0.61,6.26c-0.41,1.9-1.25,3.69-2.46,5.22c-1.26,1.59-2.79,2.95-4.52,4.02
	c-1.75,1.1-3.61,2.02-5.55,2.74c-2.31,0.87-4.73,1.41-7.19,1.58c-2.18,0.16-4.37-0.04-6.48-0.6c-1.96-0.52-3.79-1.43-5.4-2.66
	c-1.63-1.26-2.98-2.84-3.96-4.66l6.39-4.05c0.66,1.2,1.58,2.24,2.7,3.02c1.07,0.75,2.28,1.28,3.56,1.56
	c1.31,0.29,2.66,0.37,3.99,0.23c1.35-0.13,2.67-0.43,3.94-0.9c1.2-0.44,2.35-1.02,3.41-1.74c0.94-0.63,1.79-1.39,2.52-2.25
	c0.61-0.72,1.07-1.55,1.35-2.45c0.24-0.79,0.21-1.63-0.07-2.4c-0.27-0.86-0.81-1.62-1.53-2.16c-0.66-0.45-1.42-0.72-2.21-0.81
	c-0.86-0.09-1.74-0.08-2.6,0.04c-0.92,0.12-1.8,0.23-2.64,0.35l-8.38,1.25c-1.63,0.23-3.27,0.31-4.92,0.26
	c-1.53-0.04-3.04-0.33-4.48-0.86c-1.4-0.52-2.68-1.33-3.75-2.38c-1.18-1.18-2.07-2.62-2.61-4.2c-0.78-1.95-1.03-4.07-0.72-6.15
	c0.32-1.86,1.07-3.61,2.2-5.12c1.18-1.56,2.61-2.91,4.24-3.99c1.7-1.14,3.53-2.08,5.46-2.78c2.02-0.76,4.1-1.34,6.22-1.73
	c1.82-0.34,3.69-0.36,5.51-0.04c1.77,0.33,3.44,1.05,4.9,2.1c1.74,1.31,3.23,2.92,4.4,4.75l-6.35,4.18
	c-1.11-1.83-2.88-3.17-4.95-3.74c-1.91-0.45-4.34-0.14-7.28,0.95c-2.22,0.69-4.21,2-5.73,3.77c-1.14,1.34-1.46,3.19-0.83,4.84
	c0.26,0.78,0.81,1.43,1.52,1.83c0.74,0.41,1.55,0.67,2.39,0.78c0.87,0.12,1.76,0.14,2.64,0.06c0.88-0.08,1.67-0.17,2.37-0.28
	L257.67,39.39z M303.45,7.2l1.66,6.64l-14.62,3.66l8.92,35.62l-8.12,2.03l-8.92-35.62l-14.62,3.66l-1.66-6.64L303.45,7.2z
	 M346.96,38.17l0.93,6.78l-32,4.37l-5.89-43.17l31.24-4.27l0.93,6.78l-22.95,3.13l1.51,11.03l20.07-2.74l0.93,6.78l-20.07,2.74
	l1.61,11.78L346.96,38.17z M357.96,37.77l22.67-0.8l0.24,6.84L349.9,44.9l-1.53-43.54l8.29-0.29L357.96,37.77z M418.76,2.35
	l-19.28,42.58l-9.39-0.51L375.54,0l8.56,0.47l11.01,35.78l0.28,0.02L410.2,1.89L418.76,2.35z M425.32,47.72l-8.29-1.12l5.8-43.18
	l8.29,1.12L425.32,47.72z M459.09,8.81c2.95,0.63,5.73,1.86,8.19,3.6c2.35,1.66,4.35,3.77,5.88,6.2c1.53,2.46,2.57,5.2,3.05,8.05
	c0.52,3.01,0.43,6.1-0.26,9.08c-0.64,3-1.87,5.84-3.61,8.37c-1.64,2.37-3.73,4.4-6.15,5.96c-2.43,1.55-5.15,2.61-7.99,3.1
	c-2.98,0.53-6.03,0.44-8.98-0.24c-3.07-0.64-5.99-1.9-8.56-3.69c-2.36-1.65-4.36-3.76-5.88-6.2c-1.5-2.44-2.5-5.16-2.93-7.99
	c-0.46-3.03-0.33-6.11,0.37-9.09c0.64-2.98,1.84-5.82,3.53-8.35c1.59-2.39,3.65-4.44,6.06-6.01c2.42-1.56,5.12-2.62,7.96-3.11
	C452.86,7.97,456.03,8.08,459.09,8.81z M450.77,46c1.94,0.47,3.96,0.52,5.92,0.15c1.79-0.35,3.49-1.09,4.98-2.15
	c1.54-1.12,2.83-2.54,3.8-4.18c1.09-1.83,1.87-3.82,2.31-5.9c0.48-2.06,0.62-4.18,0.41-6.29c-0.19-1.89-0.75-3.73-1.66-5.4
	c-0.88-1.61-2.11-3.01-3.58-4.1c-1.62-1.17-3.47-1.98-5.42-2.38c-2.06-0.5-4.2-0.59-6.29-0.24c-1.82,0.32-3.54,1.07-5.02,2.17
	c-1.49,1.14-2.73,2.58-3.64,4.22c-1.02,1.84-1.76,3.83-2.2,5.88c-0.49,2.07-0.67,4.21-0.53,6.33c0.12,1.86,0.63,3.68,1.5,5.33
	c0.88,1.62,2.12,3.01,3.62,4.07C446.72,44.73,448.69,45.58,450.77,46L450.77,46z M532.23,33.74l-16.11,40.55l-11.89-4.72
	l-1.02-38.28l-0.26-0.1l-12.99,32.71l-7.78-3.09l16.08-40.49l11.89,4.72l1.04,38.21l0.26,0.1l12.99-32.71L532.23,33.74z
	 M549.09,80.37l-16.99-9.29l-8.12,7.22l-7.52-4.11l35.88-30.04l8.19,4.48l-5.54,46.62l-7.46-4.08L549.09,80.37z M550.19,73.17
	l2.8-19.98l-0.24-0.13l-15.18,13.22L550.19,73.17z M605.81,78l-3.89,5.63l-12.4-8.57l-20.87,30.22l-6.89-4.75l20.87-30.22
	l-12.41-8.57l3.89-5.63L605.81,78z M588.95,120.88l-6.5-5.27l27.43-33.85l6.5,5.27L588.95,120.88z M638.01,105.2
	c2.19,2.07,3.93,4.57,5.13,7.34c1.14,2.64,1.76,5.48,1.8,8.35c0.03,2.9-0.51,5.77-1.58,8.47c-1.12,2.85-2.8,5.44-4.94,7.62
	c-2.11,2.23-4.63,4.02-7.43,5.27c-2.63,1.17-5.47,1.82-8.35,1.89c-2.89,0.07-5.75-0.44-8.44-1.5c-2.82-1.1-5.39-2.76-7.55-4.87
	c-2.29-2.15-4.13-4.73-5.4-7.6c-1.16-2.63-1.77-5.48-1.8-8.35c-0.02-2.86,0.55-5.7,1.65-8.35c1.18-2.82,2.9-5.39,5.04-7.58
	c2.1-2.21,4.59-4.01,7.36-5.3c2.6-1.22,5.43-1.9,8.3-1.99c2.88-0.08,5.74,0.42,8.42,1.48C633.13,101.26,635.78,103,638.01,105.2z
	 M611.58,132.65c1.41,1.41,3.11,2.5,4.98,3.21c1.72,0.63,3.55,0.89,5.37,0.75c1.9-0.15,3.74-0.7,5.42-1.59
	c1.88-1,3.58-2.29,5.04-3.84c1.48-1.51,2.71-3.25,3.62-5.15c0.82-1.72,1.29-3.58,1.39-5.48c0.08-1.83-0.24-3.66-0.93-5.36
	c-0.78-1.84-1.93-3.49-3.39-4.85c-1.5-1.5-3.28-2.68-5.25-3.47c-1.72-0.67-3.58-0.93-5.42-0.75c-1.87,0.2-3.67,0.78-5.3,1.71
	c-1.83,1.04-3.49,2.35-4.94,3.88c-1.49,1.52-2.76,3.24-3.74,5.13c-0.87,1.65-1.38,3.47-1.49,5.33c-0.09,1.84,0.25,3.67,0.98,5.36
	C608.77,129.47,610.02,131.21,611.58,132.65L611.58,132.65z M681.04,155.15l-33.98,27.37l-8.02-9.96l17.96-33.82l-0.17-0.22
	L629.4,160.6l-5.25-6.52l33.93-27.33l8.02,9.96l-17.9,33.78l0.17,0.21l27.41-22.08L681.04,155.15z M672.77,204.02l-10.23-16.44
	l-10.63,2.3l-4.53-7.28l46.01-8.52l4.93,7.92l-27.74,37.88l-4.5-7.22L672.77,204.02z M677.27,198.28l12.26-16.02l-0.15-0.23
	l-19.72,4.05L677.27,198.28z M680.17,224.94l9.77,20.47l-6.18,2.95l-13.35-27.96l39.31-18.78l3.58,7.49L680.17,224.94z
	 M735.33,263.79c0.68,2.03,1.01,4.16,0.95,6.31c-0.05,1.9-0.48,3.77-1.28,5.5c-0.8,1.68-1.95,3.17-3.39,4.37
	c-1.59,1.31-3.42,2.29-5.38,2.9c-1.94,0.66-3.99,0.93-6.03,0.79c-1.85-0.14-3.65-0.67-5.27-1.57c-1.65-0.94-3.09-2.2-4.22-3.72
	c-1.28-1.71-2.26-3.64-2.89-5.68l-3.11-9.61l-13.95,4.51l-2.57-7.96l41.45-13.4L735.33,263.79z M714.25,270.31
	c0.48,1.93,1.75,3.58,3.5,4.54c1.88,0.79,4,0.81,5.9,0.05c2.01-0.5,3.75-1.75,4.86-3.5c0.89-1.78,0.97-3.86,0.23-5.71l-3.04-9.41
	l-14.48,4.68L714.25,270.31z M713.78,314.64l-4.02-18.94l-10.77-1.46l-1.78-8.39l46.16,7.66l1.94,9.13l-38.98,26.17l-1.77-8.32
	L713.78,314.64z M719.96,310.78l16.99-10.89l-0.06-0.27l-19.92-2.91L719.96,310.78z M711.37,363.37c-0.82,0.03-1.57,0.43-2.05,1.09
	l-0.78-8.47c0.58-0.54,1.34-0.86,2.14-0.89l7.02-0.65c2.62-0.24,4.44-1.15,5.48-2.73c1.04-1.58,1.41-3.93,1.12-7.05l-0.8-8.75
	l-16.66,1.53l-0.77-8.33l43.38-3.99l1.85,20.11c0.17,1.86,0.12,3.72-0.15,5.57c-0.25,1.81-0.83,3.56-1.71,5.16
	c-0.91,1.59-2.19,2.94-3.74,3.92c-1.88,1.14-4.02,1.8-6.21,1.92c-1.47,0.17-2.95,0.01-4.35-0.47c-1.16-0.41-2.22-1.03-3.15-1.83
	c-0.81-0.69-1.5-1.51-2.06-2.41c-0.44-0.7-0.8-1.45-1.07-2.23c-0.26,2.15-1.32,4.12-2.96,5.52c-1.55,1.23-3.96,2-7.22,2.3
	L711.37,363.37z M731.2,345.64c0.25,2.75,1.03,4.8,2.34,6.14c1.36,1.36,3.29,1.99,5.19,1.71c1.86-0.05,3.58-1.01,4.59-2.58
	c0.95-1.52,1.29-3.66,1.04-6.42l-0.96-10.4l-13.15,1.21L731.2,345.64z M734.78,388.51l-26.41,19.34l0.23-9.54l20.99-15.46
	l-7.35-7.93l-13.07-0.32l0.2-8.36l43.55,1.06l-0.2,8.37l-21.22-0.52l20.69,22.5l-0.23,9.54L734.78,388.51z M705.43,425.99l1.12-8.29
	l43.17,5.85l-1.12,8.29L705.43,425.99z M725.09,456.52c-0.7,1.69-1.52,3.32-2.45,4.89c-0.8,1.36-1.85,2.56-3.09,3.55
	c-1.21,0.93-2.61,1.58-4.11,1.88c-1.85,0.32-3.75,0.25-5.58-0.2c-2.11-0.38-4.06-1.36-5.62-2.82c-1.39-1.36-2.45-3.03-3.1-4.87
	c-0.67-1.92-1.01-3.94-0.99-5.97c0-2.07,0.21-4.13,0.64-6.16c0.49-2.42,1.33-4.75,2.5-6.93c1.03-1.93,2.37-3.67,3.96-5.17
	c1.49-1.37,3.23-2.44,5.13-3.15c1.93-0.71,4-1.01,6.05-0.87l0.01,7.57c-1.37-0.09-2.74,0.14-4,0.67c-1.21,0.51-2.3,1.25-3.22,2.18
	c-0.94,0.95-1.73,2.05-2.32,3.25c-0.61,1.21-1.06,2.49-1.34,3.81c-0.27,1.25-0.39,2.53-0.35,3.81c0.03,1.13,0.22,2.26,0.56,3.34
	c0.28,0.9,0.74,1.73,1.35,2.44c0.54,0.62,1.27,1.05,2.07,1.22c0.88,0.23,1.8,0.18,2.65-0.14c0.73-0.32,1.37-0.81,1.86-1.44
	c0.54-0.68,0.99-1.43,1.36-2.22c0.39-0.84,0.76-1.64,1.11-2.42l3.42-7.76c0.68-1.5,1.48-2.94,2.4-4.3c0.85-1.27,1.9-2.4,3.11-3.33
	c1.19-0.91,2.56-1.55,4.01-1.9c1.63-0.37,3.32-0.36,4.94,0.03c2.07,0.38,3.99,1.3,5.58,2.67c1.4,1.26,2.48,2.84,3.16,4.6
	c0.69,1.83,1.07,3.76,1.11,5.72c0.06,2.05-0.13,4.1-0.56,6.1c-0.43,2.11-1.05,4.18-1.85,6.18c-0.68,1.72-1.66,3.31-2.91,4.68
	c-1.22,1.32-2.72,2.35-4.39,3.02c-2.04,0.77-4.19,1.18-6.37,1.19l-0.15-7.6c2.14,0.04,4.22-0.74,5.81-2.19
	c1.4-1.38,2.43-3.6,3.08-6.66c0.6-2.25,0.56-4.63-0.13-6.85c-0.52-1.68-1.92-2.94-3.65-3.29c-0.8-0.19-1.64-0.08-2.36,0.31
	c-0.74,0.4-1.4,0.95-1.93,1.6c-0.57,0.68-1.06,1.41-1.46,2.2c-0.4,0.79-0.74,1.5-1.02,2.15L725.09,456.52z M694.2,506l6.79-18.13
	l-8.3-7.02l3.01-8.03l34.81,31.27l-3.27,8.74l-46.94,1.1l2.98-7.96L694.2,506z M701.49,506.07l20.18-0.05l0.1-0.26l-15.23-13.16
	L701.49,506.07z M695.93,576.34l-38.07-21.33l6.25-11.16l38.08,4.05l0.14-0.24l-30.71-17.2l4.09-7.3l38.01,21.29l-6.25,11.16
	l-38.02-4.02l-0.14,0.24l30.71,17.2L695.93,576.34z M647.49,586.89l11.44-15.62l-6.09-9l5.07-6.92l25.06,39.52l-5.52,7.53
	l-45.49-11.63l5.02-6.86L647.49,586.89z M654.49,588.93l19.44,5.41l0.16-0.22l-11.1-16.79L654.49,588.93z M642.41,643.43l-5.07-4.6
	l10.12-11.17l-27.22-24.65l5.62-6.2l27.22,24.65l10.12-11.17l5.07,4.6L642.41,643.43z M602.1,621.11l6.07-5.75l29.96,31.63
	l-6.07,5.75L602.1,621.11z M611.22,671.81c-2.34,1.9-5.05,3.3-7.95,4.12c-2.77,0.79-5.66,1.02-8.52,0.69
	c-2.88-0.35-5.66-1.26-8.19-2.67c-2.67-1.49-5.02-3.49-6.91-5.9c-1.94-2.38-3.38-5.12-4.26-8.06c-0.82-2.76-1.08-5.66-0.78-8.53
	c0.32-2.87,1.2-5.65,2.6-8.17c1.46-2.65,3.44-4.98,5.82-6.85c2.43-1.99,5.23-3.47,8.24-4.36c2.76-0.8,5.66-1.04,8.52-0.69
	c2.84,0.36,5.58,1.29,8.06,2.73c2.64,1.54,4.97,3.58,6.85,5.99c1.92,2.37,3.38,5.08,4.29,7.99c0.87,2.74,1.17,5.63,0.89,8.49
	c-0.3,2.86-1.17,5.63-2.57,8.15C615.77,667.48,613.7,669.88,611.22,671.81z M587.47,642.01c-1.58,1.22-2.89,2.76-3.83,4.51
	c-0.85,1.62-1.34,3.4-1.45,5.22c-0.1,1.9,0.2,3.8,0.87,5.59c0.74,1.99,1.8,3.85,3.14,5.5c1.3,1.67,2.87,3.11,4.64,4.26
	c1.59,1.04,3.38,1.75,5.25,2.1c1.81,0.32,3.66,0.24,5.44-0.22c1.92-0.53,3.72-1.46,5.25-2.73c1.68-1.29,3.09-2.9,4.13-4.75
	c0.89-1.62,1.39-3.43,1.46-5.27c0.05-1.88-0.29-3.74-1-5.48c-0.79-1.95-1.87-3.77-3.2-5.41c-1.31-1.68-2.86-3.16-4.6-4.38
	c-1.53-1.08-3.26-1.82-5.09-2.18c-1.81-0.33-3.67-0.24-5.44,0.27C590.99,639.65,589.1,640.65,587.47,642.01L587.47,642.01z
	 M556.05,707.91l-22.67-37.29l10.93-6.65l31.17,22.24l0.24-0.14L557.43,656l7.15-4.35l22.63,37.23l-10.93,6.65l-31.13-22.18
	l-0.24,0.14l18.29,30.08L556.05,707.91z M508.68,693.28l17.65-7.97l-0.88-10.84l7.81-3.53l2.38,46.73l-8.51,3.84l-33.88-32.5
	l7.75-3.5L508.68,693.28z M513.76,698.5l14.26,14.27l0.25-0.11l-1.41-20.08L513.76,698.5z M486.97,697.84l-21.58,6.98l-2.11-6.51
	l29.48-9.53l13.4,41.46l-7.9,2.55L486.97,697.84z M441.17,747.36c-2.1,0.41-4.26,0.45-6.38,0.11c-1.88-0.3-3.67-0.98-5.28-1.99
	c-1.56-1.01-2.89-2.36-3.88-3.94c-1.09-1.75-1.82-3.69-2.17-5.72c-0.4-2.01-0.39-4.08,0.02-6.08c0.38-1.81,1.15-3.52,2.25-5.01
	c1.15-1.51,2.59-2.77,4.25-3.69c1.87-1.04,3.9-1.75,6.01-2.11l9.93-1.81l-2.62-14.42l8.23-1.5l7.79,42.86L441.17,747.36z
	 M437.5,725.6c-1.98,0.22-3.78,1.26-4.96,2.87c-1.04,1.76-1.34,3.86-0.84,5.84c0.23,2.06,1.24,3.95,2.82,5.29
	c1.65,1.12,3.7,1.47,5.63,0.98l9.73-1.77l-2.72-14.97L437.5,725.6z M393.63,719.28l19.3-1.49l2.86-10.49l8.55-0.66l-13.67,44.75
	l-9.31,0.72l-20.8-42.09l8.48-0.66L393.63,719.28z M396.64,725.92l8.56,18.27l0.28-0.02l5.51-19.36L396.64,725.92z M345.61,710.55
	c0.08-0.81-0.22-1.62-0.82-2.18l8.5,0.33c0.46,0.65,0.68,1.44,0.6,2.24l-0.27,7.05c-0.1,2.63,0.56,4.56,1.99,5.79
	c1.43,1.23,3.71,1.91,6.84,2.03l8.78,0.34l0.64-16.72l8.36,0.32l-1.68,43.53l-20.18-0.78c-1.86-0.07-3.71-0.37-5.5-0.87
	c-1.76-0.48-3.42-1.28-4.89-2.37c-1.46-1.1-2.63-2.55-3.4-4.21c-0.88-2.02-1.26-4.22-1.1-6.41c0.02-1.48,0.37-2.93,1.03-4.25
	c0.56-1.09,1.31-2.07,2.22-2.89c0.79-0.71,1.69-1.29,2.66-1.73c0.75-0.35,1.54-0.61,2.35-0.77c-2.09-0.54-3.91-1.84-5.08-3.66
	c-1.02-1.7-1.46-4.19-1.34-7.46L345.61,710.55z M360.61,732.51c-2.76-0.11-4.9,0.4-6.39,1.52c-1.52,1.17-2.4,3-2.37,4.92
	c-0.19,1.85,0.54,3.68,1.96,4.88c1.39,1.14,3.46,1.76,6.23,1.87l10.44,0.4l0.51-13.2L360.61,732.51z M317.62,730.48l-15.72-28.72
	l9.43,1.48l12.58,22.84l8.82-6.24l2.03-12.91l8.27,1.3l-6.76,43.04l-8.26-1.3l3.29-20.97l-25.02,17.56l-9.43-1.48L317.62,730.48z
	 M284.32,696.44l8.07,2.21l-11.51,42.02l-8.07-2.21L284.32,696.44z M231.21,724.38l14.85-41.03l12.03,4.35l2.19,38.23l0.26,0.09
	l11.98-33.1l7.87,2.85l-14.83,40.96l-12.03-4.35l-2.22-38.16l-0.26-0.09l-11.98,33.1L231.21,724.38z M180.65,698.56l3.26-6.02
	l13.26,7.18l17.48-32.29l7.36,3.98l-17.48,32.29l13.26,7.18l-3.26,6.02L180.65,698.56z M143.25,672.54l25.21-35.53l6.82,4.84
	l-10.8,15.23l17.82,12.65l10.8-15.23l6.82,4.84l-25.21,35.53l-6.82-4.84l10.45-14.72l-17.82-12.65l-10.45,14.72L143.25,672.54z
	 M137.19,618.12l4.57-5.1l24.04,21.57l-29.09,32.43l-23.47-21.06l4.57-5.1l17.24,15.47l7.44-8.29L127.4,634.5l4.57-5.1l15.08,13.53
	l7.94-8.85L137.19,618.12z M76.49,604.6l33.42-28.06l8.23,9.8l-17.26,34.18l0.18,0.21L128,598.09l5.38,6.41l-33.36,28.02l-8.23-9.8
	L109,588.58l-0.18-0.21l-26.95,22.64L76.49,604.6z M59.19,580.58c-1.65-2.52-2.77-5.35-3.3-8.32c-0.5-2.83-0.45-5.73,0.18-8.54
	c0.64-2.83,1.82-5.5,3.48-7.88c1.75-2.51,3.98-4.65,6.56-6.28c2.56-1.69,5.43-2.85,8.45-3.42c2.83-0.54,5.74-0.51,8.56,0.08
	c2.82,0.6,5.5,1.76,7.87,3.41c2.49,1.72,4.61,3.92,6.23,6.48c1.74,2.62,2.93,5.55,3.51,8.64c0.52,2.83,0.46,5.74-0.18,8.54
	c-0.64,2.79-1.84,5.42-3.53,7.74c-1.8,2.47-4.06,4.58-6.65,6.21c-2.55,1.67-5.39,2.85-8.38,3.46c-2.81,0.59-5.72,0.6-8.54,0.03
	c-2.82-0.59-5.49-1.73-7.85-3.38C63.04,585.55,60.85,583.25,59.19,580.58z M91.23,559.95c-1.05-1.7-2.45-3.15-4.1-4.27
	c-1.53-1.01-3.25-1.68-5.05-1.97c-1.88-0.29-3.8-0.19-5.65,0.3c-2.06,0.54-4.01,1.41-5.79,2.58c-1.79,1.13-3.38,2.54-4.71,4.18
	c-1.19,1.48-2.08,3.19-2.61,5.01c-0.5,1.77-0.61,3.62-0.33,5.43c0.33,1.97,1.08,3.84,2.19,5.5c1.11,1.81,2.58,3.37,4.31,4.59
	c1.52,1.05,3.27,1.73,5.1,1.98c1.86,0.24,3.75,0.08,5.55-0.45c2.02-0.59,3.94-1.49,5.7-2.64c1.8-1.13,3.43-2.52,4.82-4.13
	c1.22-1.41,2.14-3.06,2.68-4.85c0.51-1.77,0.61-3.63,0.28-5.44C93.23,563.69,92.41,561.71,91.23,559.95L91.23,559.95z M67.04,505.93
	c0.75-0.31,1.32-0.95,1.54-1.74l3.69,7.66c-0.36,0.71-0.96,1.27-1.69,1.58l-6.35,3.06c-2.37,1.14-3.76,2.63-4.18,4.47
	c-0.42,1.84,0.05,4.17,1.41,7l3.81,7.91l15.07-7.27l3.63,7.54l-39.25,18.92l-8.77-18.19c-0.81-1.68-1.42-3.45-1.81-5.27
	c-0.4-1.78-0.47-3.62-0.2-5.43c0.29-1.81,1.02-3.52,2.13-4.98c1.37-1.73,3.13-3.09,5.15-3.98c1.31-0.68,2.76-1.05,4.24-1.08
	c1.23-0.02,2.44,0.19,3.59,0.61c1,0.37,1.93,0.89,2.78,1.54c0.66,0.5,1.26,1.07,1.78,1.71c-0.51-2.1-0.21-4.32,0.85-6.21
	c1.03-1.69,3.01-3.25,5.96-4.68L67.04,505.93z M54.67,529.47c-1.2-2.49-2.65-4.14-4.34-4.94c-1.75-0.8-3.78-0.72-5.46,0.21
	c-1.73,0.7-3,2.2-3.4,4.02c-0.36,1.76,0.07,3.88,1.27,6.38l4.53,9.41l11.9-5.73L54.67,529.47z M15.29,483.97l6.46-2.28l5.02,14.21
	l34.62-12.23l2.79,7.89l-34.62,12.24L34.58,518l-6.46,2.28L15.29,483.97z M5.02,439.55l42.53-9.42l1.81,8.17l-18.23,4.04l4.73,21.33
	l18.23-4.04l1.81,8.17l-42.54,9.42l-1.81-8.17l17.62-3.9l-4.72-21.33l-17.62,3.9L5.02,439.55z M26.76,407.9l2.32,19.92l-7.28,0.85
	l-2.32-19.92L26.76,407.9z M36.68,369.16l6.84-0.19l0.88,32.28l-43.55,1.19L0,370.92l6.84-0.19l0.63,23.16l11.13-0.3l-0.55-20.25
	l6.84-0.19l0.55,20.25l11.89-0.32L36.68,369.16z M35.66,338l-1.62,19.29l9.89,4.51l-0.72,8.54L1.23,349.67l0.78-9.3l44.88-13.78
	l-0.71,8.48L35.66,338z M28.63,339.9l-19.41,5.51l-0.02,0.28l18.23,8.54L28.63,339.9z M27.06,300.33c0.68-1.69,1.49-3.33,2.41-4.91
	c0.79-1.37,1.83-2.58,3.05-3.58c1.2-0.95,2.6-1.6,4.09-1.92c1.85-0.34,3.75-0.29,5.58,0.15c2.11,0.36,4.07,1.32,5.65,2.77
	c1.4,1.35,2.48,3.01,3.15,4.84c0.69,1.91,1.05,3.93,1.05,5.96c0.02,2.07-0.17,4.13-0.58,6.16c-0.47,2.42-1.29,4.76-2.43,6.95
	c-1.01,1.94-2.33,3.69-3.92,5.2c-1.47,1.39-3.2,2.48-5.09,3.2c-1.93,0.73-3.99,1.04-6.04,0.92l-0.09-7.57
	c1.37,0.07,2.73-0.17,3.99-0.71c1.2-0.52,2.29-1.27,3.2-2.21c0.93-0.96,1.71-2.07,2.29-3.27c0.6-1.22,1.03-2.5,1.31-3.83
	c0.26-1.25,0.37-2.54,0.32-3.82c-0.04-1.13-0.24-2.26-0.59-3.33c-0.29-0.9-0.76-1.72-1.38-2.43c-0.54-0.62-1.28-1.04-2.08-1.2
	c-0.88-0.22-1.8-0.16-2.65,0.17c-0.73,0.33-1.36,0.83-1.85,1.46c-0.53,0.69-0.98,1.44-1.33,2.23c-0.38,0.84-0.75,1.65-1.09,2.42
	l-3.35,7.79c-0.66,1.5-1.45,2.95-2.36,4.32c-0.84,1.28-1.88,2.42-3.08,3.36c-1.18,0.92-2.54,1.58-3.99,1.94
	c-1.62,0.38-3.32,0.39-4.94,0.02c-2.07-0.36-4.01-1.26-5.61-2.62c-1.41-1.25-2.51-2.81-3.2-4.56c-0.71-1.82-1.11-3.75-1.17-5.71
	c-0.08-2.05,0.09-4.1,0.5-6.11c0.41-2.12,1.01-4.19,1.79-6.2c0.66-1.73,1.63-3.33,2.86-4.71c1.21-1.33,2.7-2.38,4.36-3.07
	c2.03-0.79,4.18-1.22,6.36-1.25l0.22,7.6c-2.14-0.02-4.22,0.79-5.78,2.25c-1.39,1.39-2.39,3.62-3.02,6.69
	c-0.58,2.26-0.51,4.63,0.2,6.85c0.54,1.68,1.95,2.92,3.68,3.25c0.8,0.18,1.64,0.06,2.36-0.33c0.74-0.41,1.39-0.96,1.92-1.62
	c0.56-0.68,1.04-1.42,1.44-2.21c0.4-0.79,0.73-1.51,1-2.16L27.06,300.33z M23.71,244.46l6.52,2.07l-4.56,14.37l35,11.11l-2.53,7.98
	l-35-11.11l-4.56,14.37l-6.52-2.07L23.71,244.46z M38.98,208.43c1.33-2.71,3.19-5.12,5.47-7.08c2.18-1.88,4.7-3.31,7.44-4.21
	c2.76-0.89,5.66-1.24,8.55-1.02c3.05,0.22,6.03,1.05,8.75,2.44c2.76,1.34,5.22,3.22,7.25,5.52c1.91,2.16,3.37,4.67,4.3,7.4
	c0.92,2.73,1.29,5.62,1.09,8.5c-0.21,3.02-1.02,5.96-2.39,8.66c-1.36,2.83-3.28,5.35-5.64,7.42c-2.17,1.89-4.7,3.32-7.44,4.21
	c-2.73,0.87-5.6,1.18-8.46,0.92c-3.05-0.29-6.01-1.15-8.74-2.55c-2.74-1.34-5.2-3.19-7.25-5.44c-1.94-2.12-3.43-4.61-4.38-7.33
	c-0.93-2.72-1.31-5.6-1.1-8.47C36.67,214.26,37.54,211.22,38.98,208.43z M73.07,225.45c0.92-1.77,1.46-3.72,1.57-5.71
	c0.09-1.83-0.21-3.65-0.88-5.35c-0.71-1.77-1.78-3.36-3.14-4.7c-1.51-1.49-3.26-2.73-5.17-3.66c-1.88-0.96-3.91-1.61-6-1.92
	c-1.88-0.27-3.8-0.17-5.65,0.31c-1.77,0.47-3.42,1.32-4.84,2.49c-1.52,1.29-2.76,2.89-3.62,4.69c-0.99,1.88-1.58,3.94-1.74,6.05
	c-0.13,1.85,0.18,3.7,0.9,5.4c0.75,1.72,1.84,3.27,3.22,4.54c1.54,1.43,3.29,2.63,5.18,3.55c1.89,0.97,3.92,1.66,6.02,2.04
	c1.84,0.33,3.72,0.27,5.54-0.17c1.78-0.46,3.43-1.33,4.82-2.54C70.87,229.09,72.16,227.37,73.07,225.45z M94.56,200.07l-4.58,7
	l-36.46-23.85l16.66-25.46l5.73,3.75l-12.08,18.46l10.59,6.93l10.52-16.09l5.73,3.75l-10.52,16.09L94.56,200.07z M119.83,165.14
	l-5.25,6.52l-33.94-27.31l5.25-6.52L119.83,165.14z M115.47,105.2l4.99,4.69l-10.32,10.99l26.76,25.15l-5.73,6.1l-26.76-25.14
	l-10.32,10.98l-4.99-4.69L115.47,105.2z M159.62,111.04l-14.65,12.67l3.92,10.14l-6.49,5.61l-15.57-44.13l7.06-6.11l41.73,21.51
	l-6.44,5.56L159.62,111.04z M153.26,107.49l-17.74-9.62l-0.21,0.18l7.06,18.85L153.26,107.49z M179.13,100.47l18.69-12.85l3.88,5.64
	l-25.53,17.55l-24.69-35.9l6.84-4.7L179.13,100.47z M200.34,74.43l-27.32-14.78l7.88-4.47l19.47,10.9l0.62-22.3l7.88-4.47l-1.24,31
	l8.5,14.97l-7.28,4.13L200.34,74.43z M221.98,71.77l8.26-4.05l4.05,8.26l-8.26,4.05L221.98,71.77z"/>
</svg>
