<?xml version="1.0" encoding="utf-8"?>
<!-- Generator: Adobe Illustrator 24.0.1, SVG Export Plug-In . SVG Version: 6.00 Build 0)  -->
<svg version="1.1" id="Group_67" xmlns="http://www.w3.org/2000/svg" xmlns:xlink="http://www.w3.org/1999/xlink" x="0px" y="0px"
	 viewBox="0 0 752.93 753.27" style="enable-background:new 0 0 752.93 753.27;" xml:space="preserve">
<style type="text/css">
	.st0{fill:#CA4543;}
</style>
<path class="st0" d="M512.83,120.91l-2.31,4.94l-10.89-5.09l-12.39,26.51l-6.04-2.82l12.39-26.51l-10.89-5.09l2.31-4.94
	L512.83,120.91z M543.85,140.09l-18.55,29.35l-5.64-3.56l7.95-12.58l-14.72-9.31l-7.95,12.58l-5.64-3.56l18.55-29.35l5.64,3.56
	l-7.69,12.16l14.72,9.31l7.69-12.16L543.85,140.09z M550.88,183.25l-3.44,4.23l-19.97-16.25l21.92-26.93l19.49,15.86l-3.44,4.23
	l-14.32-11.65l-5.6,6.88l12.53,10.19l-3.44,4.23l-12.53-10.19l-5.98,7.35L550.88,183.25z M589.81,181.18
	c1.18,1.23,2.13,2.67,2.82,4.23c0.6,1.39,0.92,2.89,0.94,4.4c-0.01,1.49-0.34,2.95-0.97,4.3c-0.7,1.48-1.69,2.81-2.91,3.92
	c-1.18,1.13-2.57,2.02-4.09,2.61c-1.38,0.53-2.86,0.75-4.33,0.65c-1.51-0.12-2.97-0.55-4.3-1.26c-1.5-0.81-2.86-1.86-4-3.12
	l-5.49-5.88l-8.55,7.97l-4.55-4.88l25.4-23.68L589.81,181.18z M576.8,193.01c1,1.23,2.47,1.99,4.06,2.09
	c1.63-0.06,3.17-0.77,4.28-1.96c1.28-1.04,2.12-2.53,2.33-4.17c0.04-1.59-0.6-3.11-1.76-4.19l-5.38-5.77l-8.87,8.27L576.8,193.01z
	 M591.4,225.21l-9.27-12.34l-8.28,2.56l-4.1-5.46l35.94-9.98l4.47,5.95l-19.38,32.01l-4.07-5.42L591.4,225.21z M594.58,220.35
	l8.62-13.58l-0.13-0.18l-15.37,4.59L594.58,220.35z M605.9,261.3c-0.58,0.29-1,0.83-1.12,1.47l-3.38-5.88
	c0.24-0.59,0.69-1.07,1.25-1.36l4.87-2.8c1.82-1.04,2.84-2.31,3.06-3.8s-0.28-3.32-1.53-5.48l-3.49-6.07l-11.56,6.65l-3.32-5.78
	l30.1-17.31l8.02,13.95c0.74,1.29,1.32,2.66,1.74,4.08c0.42,1.39,0.58,2.85,0.47,4.3c-0.13,1.45-0.61,2.86-1.4,4.08
	c-0.99,1.45-2.31,2.64-3.86,3.46c-1,0.61-2.14,0.99-3.31,1.1c-0.97,0.09-1.95-0.01-2.89-0.28c-0.82-0.24-1.59-0.59-2.3-1.06
	c-0.55-0.36-1.06-0.78-1.52-1.26c0.53,1.64,0.41,3.42-0.31,4.98c-1.08,1.75-2.63,3.16-4.47,4.06L605.9,261.3z M614.38,241.87
	c0.79,1.61,2.11,2.91,3.73,3.67c1.44,0.53,3.04,0.35,4.33-0.49c1.33-0.66,2.25-1.92,2.47-3.39c0.09-1.77-0.39-3.52-1.38-4.99
	l-4.15-7.22l-9.13,5.25L614.38,241.87z M631.12,271.85l-12.86,22.7l-2.95-7.01l10.19-18.11l-7.93-3.36l-9.6,4.04l-2.59-6.15
	l32-13.48l2.59,6.15l-15.59,6.57l22.4,9.58l2.95,7.01L631.12,271.85z M621.95,308.7l-1.86-6.4l33.34-9.69l1.86,6.4L621.95,308.7z
	 M646.1,324.62c0.03,1.45-0.04,2.91-0.22,4.35c-0.15,1.25-0.53,2.47-1.11,3.58c-0.58,1.07-1.4,1.99-2.4,2.69
	c-1.25,0.83-2.66,1.39-4.13,1.65c-1.66,0.4-3.4,0.31-5-0.25c-1.45-0.55-2.76-1.42-3.82-2.56c-1.11-1.18-2-2.55-2.64-4.04
	c-0.67-1.51-1.17-3.09-1.51-4.7c-0.42-1.92-0.55-3.9-0.4-5.86c0.13-1.74,0.54-3.44,1.23-5.04c0.64-1.48,1.57-2.82,2.73-3.94
	c1.18-1.14,2.59-2.02,4.14-2.58l2.44,5.52c-1.02,0.38-1.95,0.98-2.7,1.77c-0.71,0.76-1.27,1.65-1.65,2.62
	c-0.38,1-0.6,2.05-0.65,3.12c-0.05,1.08,0.03,2.16,0.25,3.21c0.2,1,0.53,1.98,0.97,2.9c0.38,0.82,0.88,1.58,1.48,2.25
	c0.49,0.57,1.1,1.02,1.77,1.35c0.59,0.28,1.26,0.36,1.9,0.22c0.71-0.11,1.37-0.45,1.88-0.96c0.43-0.47,0.74-1.03,0.9-1.65
	c0.17-0.67,0.27-1.36,0.28-2.06c0.02-0.73,0.03-1.44,0.04-2.12v-6.75c0.01-1.31,0.14-2.61,0.37-3.9c0.21-1.2,0.62-2.36,1.2-3.43
	c0.58-1.04,1.36-1.96,2.31-2.68c1.07-0.79,2.31-1.33,3.61-1.57c1.63-0.39,3.33-0.33,4.93,0.16c1.43,0.47,2.72,1.27,3.78,2.34
	c1.09,1.11,1.99,2.4,2.65,3.81c0.7,1.48,1.22,3.03,1.55,4.63c0.36,1.68,0.58,3.38,0.64,5.1c0.06,1.48-0.15,2.95-0.62,4.35
	c-0.47,1.35-1.23,2.59-2.23,3.62c-1.24,1.22-2.68,2.2-4.26,2.91l-2.55-5.49c1.58-0.66,2.84-1.9,3.53-3.46
	c0.6-1.9,0.63-3.93,0.11-5.85c-0.28-1.84-1.08-3.55-2.3-4.95c-0.92-1.06-2.35-1.53-3.72-1.23c-0.64,0.12-1.22,0.47-1.63,0.98
	c-0.41,0.53-0.71,1.14-0.9,1.79c-0.2,0.67-0.32,1.37-0.36,2.07c-0.04,0.7-0.06,1.34-0.06,1.9L646.1,324.62z M666.29,375.79
	l-5.45,0.31l-0.68-12l-29.22,1.65l-0.38-6.66l29.22-1.65l-0.68-12l5.45-0.31L666.29,375.79z M664.14,412.16l-34.64-2.38l0.46-6.65
	l14.85,1.02l1.19-17.38l-14.85-1.02l0.46-6.65l34.64,2.38l-0.46,6.65l-14.35-0.99l-1.2,17.38l14.35,0.99L664.14,412.16z
	 M629.52,438.87l-5.36-1.02l4.79-25.29l34.11,6.47l-4.68,24.69l-5.36-1.02l3.44-18.14l-8.72-1.65l-3.01,15.87l-5.36-1.02l3.01-15.87
	l-9.31-1.77L629.52,438.87z M624.7,455.05l-5.75,17.14l-5.17-1.74l7.85-23.41l32.92,11.04l-2.1,6.27L624.7,455.05z M611.09,495.79
	l6.57-13.96l-6.14-6.12l2.91-6.18l25.63,27.1l-3.17,6.73l-37.36-2.16l2.89-6.13L611.09,495.79z M616.87,496.31l16.03,1.27l0.09-0.2
	l-11.25-11.44L616.87,496.31z M585.96,525.48c-0.53-0.38-1.2-0.49-1.83-0.31l3.62-5.73c0.63-0.06,1.27,0.11,1.79,0.48l4.75,3
	c1.77,1.12,3.37,1.43,4.79,0.93s2.8-1.8,4.13-3.91l3.73-5.92l-11.28-7.11l3.56-5.64l29.37,18.52L620,533.39
	c-0.79,1.25-1.73,2.41-2.79,3.45c-1.03,1.02-2.25,1.84-3.58,2.42c-1.35,0.57-2.81,0.8-4.26,0.67c-1.74-0.19-3.41-0.81-4.86-1.79
	c-1.01-0.6-1.87-1.42-2.52-2.4c-0.53-0.82-0.91-1.73-1.11-2.69c-0.17-0.83-0.22-1.68-0.13-2.53c0.06-0.66,0.19-1.3,0.4-1.93
	c-1.2,1.23-2.83,1.96-4.55,2.05c-2.05-0.13-4.02-0.84-5.68-2.05L585.96,525.48z M607.1,523.89c-1.06,1.45-1.59,3.22-1.5,5.01
	c0.2,1.52,1.11,2.86,2.45,3.6c1.2,0.87,2.75,1.1,4.15,0.6c1.61-0.75,2.93-1.99,3.77-3.55l4.44-7.04l-8.9-5.62L607.1,523.89z
	 M583.88,545.32l4.38,3.61l-11.35,13.79l-14-11.52l3.05-3.7l4.04,2.47c-0.23-1.28-0.3-2.59-0.22-3.89c0.07-1.31,0.31-2.6,0.7-3.85
	c0.46-1.44,1.21-2.77,2.18-3.91c1.54-1.9,3.42-3.5,5.55-4.71c1.99-1.13,4.2-1.85,6.47-2.1c2.29-0.24,4.61-0.02,6.82,0.65
	c2.4,0.73,4.63,1.95,6.55,3.57c1.93,1.55,3.53,3.47,4.7,5.65c1.1,2.04,1.78,4.27,2.01,6.58c0.22,2.3-0.03,4.62-0.73,6.83
	c-0.75,2.36-1.95,4.54-3.54,6.43c-2.24,2.83-5.26,4.94-8.69,6.05c-3.43,1.05-7.11,0.92-10.45-0.39l2.67-5.94
	c2.09,0.77,4.37,0.89,6.53,0.34c2.23-0.61,4.21-1.93,5.63-3.76c1.11-1.29,1.95-2.8,2.47-4.43c0.43-1.41,0.52-2.9,0.26-4.35
	c-0.28-1.47-0.84-2.88-1.67-4.12c-0.93-1.4-2.07-2.65-3.38-3.71c-1.3-1.09-2.76-1.98-4.33-2.63c-1.38-0.57-2.86-0.86-4.35-0.83
	c-1.47,0.04-2.9,0.42-4.2,1.11c-1.5,0.82-2.82,1.93-3.87,3.27c-1.56,1.78-2.5,4.01-2.67,6.37c-0.11,2.27,0.52,4.52,1.8,6.4
	L583.88,545.32z M545.87,574.84l-3.76-3.95l18.64-17.75l23.94,25.15l-18.2,17.33l-3.76-3.95l13.37-12.73l-6.12-6.43l-11.7,11.13
	l-3.76-3.95l11.7-11.13l-6.53-6.87L545.87,574.84z M539.63,597.87c-1.3,0.66-2.64,1.22-4.02,1.68c-1.19,0.41-2.45,0.59-3.71,0.55
	c-1.22-0.06-2.4-0.41-3.47-1c-1.29-0.77-2.4-1.79-3.27-3.01c-1.08-1.32-1.75-2.93-1.94-4.62c-0.13-1.55,0.09-3.1,0.65-4.55
	c0.59-1.51,1.43-2.91,2.5-4.13c1.07-1.25,2.27-2.39,3.58-3.39c1.55-1.21,3.27-2.19,5.11-2.9c1.62-0.63,3.34-1,5.08-1.07
	c1.61-0.06,3.22,0.19,4.74,0.75c1.54,0.57,2.94,1.46,4.11,2.62l-3.92,4.59c-0.78-0.76-1.73-1.33-2.76-1.67
	c-0.99-0.32-2.04-0.44-3.08-0.35c-1.06,0.09-2.11,0.35-3.09,0.77c-0.99,0.42-1.93,0.96-2.79,1.61c-0.81,0.62-1.55,1.33-2.19,2.12
	c-0.57,0.7-1.04,1.48-1.39,2.31c-0.3,0.69-0.45,1.43-0.45,2.18c0,0.66,0.22,1.29,0.62,1.81c0.41,0.59,1,1.04,1.68,1.29
	c0.61,0.19,1.25,0.22,1.88,0.09c0.68-0.13,1.34-0.35,1.97-0.64c0.67-0.3,1.31-0.6,1.93-0.88l6.09-2.92
	c1.19-0.55,2.42-1.01,3.68-1.35c1.17-0.33,2.4-0.46,3.61-0.4c1.19,0.07,2.35,0.39,3.41,0.93c1.18,0.62,2.19,1.51,2.98,2.58
	c1.06,1.3,1.74,2.86,1.99,4.51c0.19,1.49,0.03,3-0.47,4.42c-0.53,1.47-1.3,2.83-2.29,4.04c-1.03,1.27-2.2,2.41-3.5,3.4
	c-1.36,1.05-2.8,1.98-4.32,2.78c-1.3,0.69-2.72,1.14-4.19,1.33c-1.42,0.16-2.87,0.01-4.23-0.45c-1.63-0.59-3.15-1.46-4.47-2.59
	l3.85-4.67c1.28,1.14,2.94,1.74,4.65,1.68c1.97-0.28,3.82-1.13,5.32-2.43c1.53-1.05,2.74-2.51,3.47-4.21
	c0.56-1.29,0.36-2.78-0.5-3.88c-0.39-0.53-0.95-0.9-1.59-1.04c-0.66-0.14-1.34-0.15-2-0.03c-0.69,0.12-1.37,0.31-2.02,0.57
	c-0.65,0.27-1.23,0.52-1.74,0.77L539.63,597.87z M512.2,633.11l-2.81-4.68l10.3-6.19l-15.08-25.08l5.72-3.44l15.08,25.08l10.3-6.19
	l2.81,4.68L512.2,633.11z M479.33,610.06l6.06-2.77l14.45,31.58l-6.06,2.77L479.33,610.06z M461.05,654.25l-11.8-32.71l9.59-3.46
	l20.82,22.31l0.21-0.08l-9.52-26.39l6.27-2.26l11.78,32.66l-9.59,3.46l-20.8-22.26l-0.21,0.08l9.52,26.39L461.05,654.25z
	 M431.94,625.63l6.49-1.54l7.99,33.79l-6.49,1.54L431.94,625.63z M405.26,665.41l-0.83-5.39l11.88-1.82l-4.44-28.93l6.59-1.01
	l4.44,28.93l11.88-1.83l0.83,5.4L405.26,665.41z M380.39,639.96l15.42-0.69l2.55-8.28l6.83-0.31l-12.05,35.3l-7.43,0.33
	l-15.48-34.07l6.77-0.3L380.39,639.96z M382.62,645.32l6.34,14.78l0.22-0.01l4.89-15.28L382.62,645.32z M363,636.89l-18.03-1.26
	l0.38-5.44l24.63,1.73l-2.43,34.64l-6.6-0.46L363,636.89z M336.83,642.57l9.63,22.81l-7.13-1.14l-6.68-16.48l-11.5,13.56l-7.13-1.14
	l16.22-18.67l2.17-13.55l6.58,1.06L336.83,642.57z M287.57,624.66l14.68,4.76l5.3-6.86l6.5,2.11l-23.67,28.83l-7.08-2.3l-2.55-37.33
	l6.45,2.09L287.57,624.66z M287.77,630.46l0.76,16.06l0.21,0.07l9.94-12.59L287.77,630.46z M239.5,632.67l14.84-31.45l9.22,4.35
	l-1.1,30.5l0.2,0.1l11.97-25.37l6.03,2.85l-14.81,31.4l-9.22-4.35l1.08-30.45l-0.2-0.09l-11.97,25.37L239.5,632.67z M233.25,629.19
	l-11.57-7.38c-2.14-1.32-4.03-3.01-5.59-4.97c-1.38-1.74-2.37-3.75-2.9-5.9c-0.5-2.14-0.52-4.36-0.06-6.51
	c0.53-2.43,1.51-4.75,2.89-6.82c1.31-2.12,2.99-3.98,4.98-5.49c1.75-1.32,3.78-2.24,5.93-2.69c2.18-0.42,4.42-0.37,6.58,0.15
	c2.44,0.59,4.76,1.6,6.86,2.98l11.57,7.38L233.25,629.19z M237.47,597.16c-3.1-1.98-5.99-2.62-8.67-1.94
	c-2.68,0.69-5.07,2.67-7.17,5.95c-2.09,3.28-2.89,6.28-2.38,9.01c0.51,2.72,2.31,5.07,5.41,7.05l5.9,3.77l12.81-20.07L237.47,597.16
	z M202.75,570.41c-1.64-1.56-3.76-2.53-6.01-2.75c-2.18-0.16-4.36,0.36-6.24,1.48l-3.63-5.54c2.83-1.89,6.24-2.72,9.63-2.33
	c3.6,0.47,6.96,2.06,9.62,4.53c1.66,1.49,3.05,3.25,4.12,5.2c1.1,1.98,1.79,4.15,2.04,6.4c0.25,2.35,0.03,4.73-0.66,6.99
	c-0.8,2.56-2.16,4.9-3.99,6.86c-1.75,2.05-3.94,3.68-6.41,4.77c-2.16,0.94-4.49,1.42-6.85,1.42c-2.26-0.01-4.5-0.46-6.59-1.31
	c-2.07-0.83-3.98-2.01-5.64-3.49c-1.41-1.24-2.62-2.68-3.6-4.29c-0.89-1.47-1.56-3.08-1.97-4.75c-0.39-1.62-0.48-3.29-0.28-4.94
	c0.22-1.71,0.73-3.36,1.5-4.9l5.91,2.99c-0.91,2-1.17,4.23-0.75,6.38c0.47,2.21,1.66,4.19,3.38,5.65c1.19,1.11,2.6,1.95,4.14,2.48
	c1.36,0.45,2.81,0.57,4.23,0.35c1.46-0.24,2.87-0.77,4.13-1.56c1.41-0.87,2.69-1.95,3.78-3.2c1.15-1.25,2.1-2.67,2.83-4.2
	c0.64-1.33,1-2.78,1.07-4.26c0.05-1.43-0.24-2.85-0.84-4.15C204.98,572.77,203.98,571.46,202.75,570.41z M155.57,565.48
	c-1.58-1.81-2.77-3.93-3.51-6.21c-0.71-2.18-0.97-4.48-0.79-6.76c0.2-2.3,0.84-4.54,1.9-6.6c1.11-2.17,2.64-4.1,4.5-5.67
	c1.84-1.61,3.98-2.84,6.3-3.62c2.18-0.73,4.48-1.02,6.77-0.87c2.29,0.17,4.53,0.79,6.58,1.84c2.15,1.09,4.06,2.6,5.62,4.44
	c1.65,1.88,2.91,4.07,3.7,6.44c0.72,2.18,0.99,4.48,0.79,6.76c-0.21,2.28-0.87,4.49-1.95,6.5c-1.16,2.15-2.71,4.06-4.58,5.63
	c-1.83,1.6-3.95,2.83-6.24,3.64c-2.16,0.77-4.45,1.09-6.74,0.94c-2.29-0.16-4.52-0.77-6.56-1.82
	C159.15,568.98,157.17,567.4,155.57,565.48z M178.64,545.72c-1.01-1.22-2.27-2.22-3.7-2.92c-1.31-0.63-2.74-0.98-4.2-1.01
	c-1.52-0.02-3.02,0.27-4.42,0.85c-1.57,0.65-3.01,1.54-4.29,2.66c-1.29,1.08-2.39,2.37-3.26,3.81c-0.78,1.3-1.3,2.74-1.52,4.24
	c-0.2,1.45-0.09,2.93,0.33,4.33c0.48,1.52,1.27,2.92,2.32,4.11c1.07,1.3,2.4,2.38,3.9,3.15c1.31,0.67,2.77,1.01,4.24,1.01
	c1.5-0.02,2.97-0.34,4.33-0.96c1.53-0.69,2.95-1.6,4.22-2.71c1.3-1.09,2.43-2.36,3.36-3.79c0.81-1.25,1.35-2.65,1.59-4.12
	c0.21-1.45,0.08-2.93-0.37-4.33C180.62,548.46,179.76,546.98,178.64,545.72z M124.73,521.53l36.43-7.82l4.12,6.26l-21.57,30.38
	l-3.76-5.71l17.72-24.01l-0.12-0.18l-29.05,6.79L124.73,521.53z M137.44,481.5l4.88-2.45l11.55,23l-31.03,15.58l-11.27-22.46
	l4.88-2.45l8.28,16.5l7.93-3.98l-7.24-14.43l4.88-2.45l7.24,14.43l8.47-4.25L137.44,481.5z M130.6,452.4
	c0.62-0.19,1.12-0.66,1.35-1.26l2.34,6.36c-0.34,0.54-0.86,0.94-1.47,1.13l-5.28,1.94c-1.96,0.72-3.18,1.8-3.66,3.23
	c-0.47,1.43-0.28,3.31,0.59,5.66l2.42,6.57l12.52-4.61l2.3,6.26l-32.58,12l-5.56-15.1c-0.51-1.39-0.86-2.84-1.03-4.32
	c-0.18-1.44-0.1-2.91,0.26-4.32c0.37-1.41,1.08-2.71,2.07-3.79c1.22-1.26,2.72-2.21,4.39-2.76c1.09-0.44,2.27-0.62,3.45-0.53
	c0.97,0.08,1.92,0.33,2.8,0.76c0.76,0.37,1.47,0.85,2.08,1.44c0.49,0.45,0.92,0.95,1.28,1.5c-0.24-1.71,0.17-3.44,1.15-4.86
	c1.36-1.54,3.12-2.67,5.09-3.25L130.6,452.4z M118.98,470.13c-0.51-1.72-1.59-3.22-3.06-4.25c-1.33-0.77-2.94-0.86-4.35-0.25
	c-1.42,0.42-2.54,1.52-3,2.92c-0.39,1.73-0.21,3.54,0.52,5.15l2.88,7.81l9.88-3.64L118.98,470.13z M108.22,437.55
	c-0.08-1.45-0.05-2.91,0.08-4.36c0.11-1.26,0.45-2.48,1-3.62c0.55-1.09,1.34-2.03,2.31-2.77c1.22-0.87,2.61-1.47,4.08-1.78
	c1.65-0.45,3.39-0.42,5.01,0.1c1.47,0.5,2.8,1.33,3.9,2.43c1.14,1.15,2.08,2.48,2.77,3.95c0.71,1.49,1.27,3.04,1.66,4.65
	c0.48,1.91,0.68,3.88,0.59,5.84c-0.07,1.74-0.44,3.46-1.07,5.08c-0.6,1.5-1.48,2.87-2.6,4.03c-1.15,1.18-2.53,2.1-4.05,2.71
	l-2.61-5.44c1.01-0.41,1.92-1.04,2.64-1.85c0.69-0.78,1.22-1.69,1.57-2.67c0.35-1.01,0.54-2.07,0.55-3.14
	c0.02-1.08-0.09-2.16-0.35-3.21c-0.23-0.99-0.59-1.96-1.06-2.86c-0.41-0.81-0.93-1.55-1.55-2.21c-0.51-0.55-1.13-0.99-1.81-1.29
	c-0.6-0.26-1.27-0.32-1.91-0.16c-0.71,0.13-1.36,0.49-1.85,1.01c-0.42,0.48-0.7,1.06-0.84,1.68c-0.15,0.68-0.22,1.37-0.21,2.06
	c0.01,0.73,0.02,1.44,0.03,2.12l0.21,6.75c0.03,1.31-0.06,2.62-0.25,3.92c-0.17,1.21-0.54,2.38-1.09,3.47
	c-0.54,1.06-1.3,2-2.23,2.75c-1.04,0.82-2.26,1.4-3.56,1.68c-1.61,0.44-3.32,0.44-4.93,0c-1.44-0.42-2.76-1.18-3.85-2.22
	c-1.13-1.08-2.06-2.34-2.77-3.73c-0.75-1.45-1.32-2.99-1.7-4.58c-0.42-1.67-0.68-3.37-0.8-5.08c-0.1-1.47,0.06-2.95,0.48-4.37
	c0.43-1.37,1.15-2.63,2.12-3.69c1.2-1.26,2.61-2.29,4.17-3.05l2.72,5.41c-1.55,0.71-2.78,1.99-3.42,3.58
	c-0.54,1.92-0.51,3.95,0.08,5.85c0.34,1.82,1.19,3.52,2.45,4.88c0.95,1.03,2.39,1.45,3.75,1.11c0.64-0.14,1.21-0.51,1.59-1.04
	c0.39-0.55,0.68-1.16,0.84-1.82c0.18-0.68,0.27-1.38,0.29-2.08c0.02-0.7,0.02-1.34,0-1.9L108.22,437.55z M87.71,401.63
	c-0.18-1.7-0.06-3.41,0.35-5.07c0.37-1.47,1.03-2.85,1.95-4.06c0.91-1.17,2.07-2.13,3.39-2.81c1.46-0.74,3.06-1.19,4.69-1.32
	c1.62-0.18,3.26-0.03,4.83,0.43c1.41,0.43,2.72,1.15,3.83,2.13c1.12,1.01,2.02,2.25,2.64,3.63c0.7,1.56,1.13,3.22,1.26,4.92
	l0.75,8.01l11.63-1.09l0.62,6.64l-34.57,3.24L87.71,401.63z M105.24,400.21c-0.04-1.59-0.74-3.09-1.94-4.14
	c-1.33-0.95-2.98-1.33-4.58-1.07c-1.65,0.04-3.22,0.71-4.39,1.88c-1,1.23-1.42,2.83-1.17,4.4l0.74,7.85l12.07-1.13L105.24,400.21z
	 M113.35,365.8l-0.2,15.43l8.12,3.02l-0.09,6.83l-34.55-14.05l0.09-7.44l34.9-13.5l-0.09,6.78L113.35,365.8z M107.87,367.72
	l-15.12,5.49v0.22l14.98,5.76L107.87,367.72z M123.88,328.38c0.64,0.12,1.3-0.05,1.79-0.48l-0.9,6.72c-0.55,0.32-1.2,0.43-1.82,0.31
	l-5.57-0.75c-2.08-0.28-3.66,0.1-4.74,1.14c-1.09,1.04-1.79,2.8-2.13,5.27l-0.93,6.94l13.22,1.78l-0.89,6.61l-34.41-4.64l2.15-15.95
	c0.2-1.47,0.57-2.91,1.11-4.3c0.51-1.36,1.28-2.62,2.25-3.7c0.99-1.08,2.22-1.89,3.6-2.38c1.67-0.55,3.44-0.68,5.17-0.39
	c1.17,0.13,2.3,0.52,3.3,1.14c0.82,0.52,1.54,1.2,2.12,1.98c0.5,0.68,0.9,1.44,1.17,2.25c0.22,0.62,0.37,1.27,0.44,1.92
	c0.58-1.62,1.76-2.96,3.29-3.75c1.92-0.73,4.01-0.9,6.02-0.5L123.88,328.38z M105.32,338.62c0.36-1.76,0.11-3.59-0.72-5.19
	c-0.82-1.3-2.2-2.14-3.73-2.25c-1.45-0.29-2.96,0.15-4.02,1.18c-1.15,1.35-1.84,3.03-1.95,4.8l-1.11,8.25l10.43,1.4L105.32,338.62z
	 M99.21,290.97l5.29,1.33l-2.93,11.65l28.38,7.15l-1.63,6.47l-28.38-7.15l-2.94,11.65l-5.29-1.33L99.21,290.97z M109.78,261.49
	c0.94-2.21,2.31-4.21,4.04-5.88c1.65-1.59,3.6-2.84,5.73-3.68c2.16-0.83,4.45-1.23,6.76-1.19c2.44,0.04,4.84,0.57,7.07,1.56
	c2.25,0.95,4.3,2.33,6.02,4.07c1.61,1.64,2.88,3.57,3.75,5.7c0.86,2.14,1.28,4.42,1.24,6.72c-0.03,2.41-0.55,4.79-1.52,7
	c-0.96,2.31-2.38,4.4-4.16,6.16c-1.64,1.6-3.59,2.85-5.73,3.67c-2.13,0.81-4.41,1.19-6.69,1.1c-2.44-0.1-4.84-0.65-7.06-1.64
	c-2.24-0.95-4.28-2.31-6.01-4.01c-1.64-1.6-2.93-3.52-3.81-5.64c-0.86-2.12-1.29-4.4-1.25-6.69
	C108.2,266.23,108.75,263.77,109.78,261.49z M137.65,273.54c0.66-1.45,1-3.02,1-4.61c-0.01-1.46-0.33-2.9-0.94-4.22
	c-0.65-1.37-1.57-2.6-2.71-3.6c-1.27-1.12-2.71-2.03-4.27-2.69c-1.54-0.69-3.18-1.11-4.86-1.26c-1.51-0.13-3.03,0.04-4.48,0.5
	c-1.39,0.45-2.67,1.2-3.74,2.19c-1.16,1.09-2.07,2.42-2.67,3.89c-0.7,1.54-1.08,3.2-1.12,4.89c-0.02,1.47,0.31,2.93,0.95,4.25
	c0.67,1.34,1.61,2.52,2.76,3.48c1.29,1.07,2.73,1.95,4.28,2.6c1.55,0.69,3.19,1.15,4.88,1.36c1.48,0.19,2.98,0.06,4.4-0.38
	c1.4-0.45,2.67-1.21,3.73-2.23C136.06,276.52,137.02,275.1,137.65,273.54L137.65,273.54z M153.68,252.45l-3.37,5.76l-29.97-17.54
	l12.25-20.93l4.71,2.76l-8.88,15.17l8.7,5.09l7.74-13.22l4.71,2.76l-7.74,13.23L153.68,252.45z M159.08,184.65l4.27,3.4l-7.49,9.4
	l22.89,18.23l-4.16,5.22l-22.89-18.23l-7.49,9.4l-4.27-3.4L159.08,184.65z M190.92,201.3l-29.8-19.62l4.89-4.61l23.47,16.35
	l0.16-0.15l-14.97-24.37l5.85-5.52l23.51,16.32l0.16-0.15l-14.97-24.37l4.89-4.61l0.07,0.16l17.78,30.73l-6.13,5.79l-23.77-16.52
	l-0.16,0.15l15.15,24.65L190.92,201.3z M211.11,138.03c1.96-1.38,4.19-2.35,6.54-2.86c2.24-0.48,4.56-0.51,6.81-0.09
	c2.27,0.43,4.43,1.3,6.37,2.56c2.05,1.32,3.81,3.04,5.18,5.06c1.41,1.99,2.42,4.25,2.96,6.63c0.5,2.24,0.56,4.56,0.17,6.83
	c-0.4,2.26-1.25,4.43-2.5,6.36c-1.3,2.03-3,3.78-4.99,5.14c-2.04,1.45-4.34,2.48-6.79,3.03c-2.24,0.49-4.56,0.52-6.81,0.09
	c-2.24-0.44-4.37-1.32-6.26-2.6c-2.02-1.37-3.76-3.11-5.13-5.13c-1.4-1.99-2.41-4.22-2.99-6.58c-0.54-2.23-0.63-4.54-0.25-6.8
	c0.39-2.26,1.23-4.42,2.48-6.35C207.26,141.22,209.03,139.42,211.11,138.03z M228.41,162.98c1.32-0.88,2.44-2.04,3.29-3.39
	c0.76-1.24,1.25-2.63,1.43-4.08c0.18-1.51,0.04-3.04-0.4-4.49c-0.48-1.62-1.23-3.16-2.21-4.54c-0.95-1.39-2.11-2.62-3.46-3.63
	c-1.21-0.91-2.59-1.57-4.06-1.94c-1.42-0.35-2.9-0.39-4.34-0.11c-1.56,0.32-3.03,0.96-4.32,1.89c-1.41,0.93-2.61,2.15-3.54,3.56
	c-0.79,1.24-1.29,2.65-1.44,4.12c-0.14,1.49,0.04,2.99,0.51,4.41c0.53,1.59,1.29,3.1,2.26,4.47c0.95,1.41,2.1,2.66,3.42,3.73
	c1.16,0.94,2.5,1.62,3.94,2c1.42,0.36,2.91,0.38,4.34,0.07C225.49,164.68,227.04,163.97,228.41,162.98L228.41,162.98z
	 M278.23,139.22c0.25,0.6,0.76,1.06,1.38,1.23l-6.11,2.93c-0.57-0.29-1.01-0.77-1.26-1.35l-2.43-5.07c-0.9-1.89-2.09-3-3.55-3.34
	c-1.47-0.34-3.32,0.03-5.58,1.11l-6.31,3.02l5.76,12.03l-6.01,2.88l-14.99-31.32l14.52-6.95c1.34-0.64,2.75-1.12,4.2-1.43
	c1.42-0.32,2.89-0.37,4.33-0.15c1.44,0.24,2.8,0.82,3.96,1.71c1.37,1.09,2.46,2.5,3.16,4.11c0.53,1.05,0.83,2.2,0.85,3.38
	c0.01,0.98-0.15,1.95-0.49,2.86c-0.3,0.79-0.71,1.54-1.23,2.21c-0.4,0.53-0.86,1-1.37,1.42c1.68-0.4,3.44-0.16,4.94,0.69
	c1.66,1.21,2.95,2.86,3.71,4.76L278.23,139.22z M259.5,129.31c1.67-0.66,3.06-1.88,3.94-3.44c0.64-1.39,0.58-3.01-0.16-4.35
	c-0.55-1.38-1.75-2.39-3.2-2.72c-1.76-0.22-3.54,0.13-5.08,1l-7.51,3.59l4.54,9.5L259.5,129.31z M303.52,126.45l1.79,5.16
	L281,140.05l-11.39-32.8l23.74-8.24l1.79,5.15l-17.44,6.05l2.91,8.38l15.26-5.3l1.79,5.15l-15.26,5.3l3.11,8.96L303.52,126.45z
	 M317,116.12l-1.22-5.54l17.44-3.85l3.9,17.71l-4.68,1.03l-1.66-4.43c-0.61,1.15-1.36,2.23-2.23,3.2c-0.87,0.98-1.85,1.85-2.93,2.59
	c-1.25,0.84-2.66,1.43-4.13,1.73c-2.39,0.55-4.85,0.64-7.27,0.28c-2.27-0.34-4.44-1.14-6.39-2.35c-1.95-1.23-3.64-2.83-4.96-4.72
	c-1.44-2.06-2.44-4.39-2.95-6.86c-0.56-2.41-0.63-4.91-0.21-7.35c0.4-2.28,1.24-4.46,2.48-6.42c1.25-1.94,2.88-3.62,4.78-4.92
	c2.04-1.39,4.34-2.37,6.76-2.87c3.51-0.85,7.19-0.64,10.57,0.6c3.35,1.29,6.16,3.67,7.98,6.76l-5.77,3.02
	c-1.17-1.9-2.89-3.4-4.93-4.3c-2.13-0.9-4.5-1.08-6.75-0.52c-1.68,0.33-3.27,1-4.68,1.96c-1.21,0.85-2.2,1.96-2.89,3.26
	c-0.69,1.33-1.11,2.78-1.23,4.28c-0.14,1.68-0.01,3.36,0.37,5c0.35,1.66,0.95,3.26,1.78,4.74c0.73,1.3,1.72,2.44,2.91,3.34
	c1.18,0.87,2.55,1.46,3.99,1.72c1.68,0.28,3.41,0.22,5.07-0.19c2.32-0.44,4.44-1.61,6.03-3.36c1.49-1.72,2.38-3.88,2.54-6.15
	L317,116.12z M346.95,123.62l-6.61,0.85l-4.42-34.44l6.61-0.85L346.95,123.62z M365,86.74c2.4-0.11,4.8,0.26,7.05,1.1
	c2.15,0.8,4.12,2.02,5.79,3.58c1.68,1.58,3.04,3.48,4,5.58c1.02,2.22,1.58,4.61,1.65,7.05c0.12,2.44-0.24,4.88-1.07,7.19
	c-0.78,2.16-1.98,4.15-3.52,5.85c-1.56,1.69-3.43,3.06-5.52,4.02c-2.19,1.01-4.56,1.57-6.97,1.65c-2.5,0.13-5-0.24-7.35-1.09
	c-2.15-0.79-4.12-2.01-5.79-3.58c-1.66-1.57-2.98-3.46-3.89-5.56c-0.97-2.24-1.5-4.64-1.57-7.08c-0.11-2.43,0.23-4.85,1.02-7.15
	c0.74-2.17,1.91-4.17,3.44-5.87c1.54-1.7,3.41-3.06,5.5-4.02C360.04,87.36,362.5,86.8,365,86.74z M366.18,117.08
	c1.59-0.03,3.16-0.41,4.59-1.09c1.31-0.64,2.47-1.55,3.4-2.67c0.96-1.18,1.67-2.54,2.08-4c0.46-1.63,0.66-3.32,0.58-5.02
	c-0.05-1.68-0.37-3.35-0.96-4.93c-0.53-1.42-1.34-2.72-2.38-3.82c-1.01-1.06-2.24-1.89-3.6-2.42c-1.48-0.57-3.07-0.82-4.66-0.73
	c-1.69,0.03-3.35,0.41-4.89,1.1c-1.34,0.62-2.51,1.54-3.43,2.7c-0.92,1.18-1.58,2.54-1.94,3.99c-0.41,1.63-0.58,3.31-0.5,4.98
	c0.05,1.7,0.34,3.38,0.88,4.98c0.47,1.41,1.24,2.71,2.24,3.8c1.01,1.07,2.25,1.89,3.62,2.4
	C362.8,116.94,364.49,117.18,366.18,117.08z M417.6,89.76l-3.2,34.63l-10.15-0.94l-9.39-29.04l-0.22-0.02l-2.58,27.93l-6.64-0.61
	l3.2-34.58l10.15,0.94l9.38,28.99l0.22,0.02l2.58-27.94L417.6,89.76z M438.3,109.09c1.34,0.56,2.64,1.22,3.89,1.97
	c1.08,0.64,2.04,1.48,2.82,2.47c0.74,0.96,1.25,2.09,1.49,3.28c0.25,1.48,0.19,2.99-0.17,4.45c-0.31,1.68-1.09,3.23-2.26,4.48
	c-1.09,1.11-2.42,1.95-3.89,2.46c-1.53,0.53-3.14,0.8-4.76,0.78c-1.65,0-3.29-0.18-4.91-0.52c-1.93-0.4-3.78-1.07-5.51-2
	c-1.54-0.82-2.93-1.89-4.11-3.17c-1.09-1.19-1.94-2.58-2.5-4.09c-0.56-1.54-0.8-3.19-0.68-4.83h6.03c-0.07,1.09,0.11,2.18,0.53,3.19
	c0.4,0.96,0.99,1.83,1.73,2.57c0.76,0.75,1.63,1.38,2.59,1.85c0.96,0.49,1.98,0.85,3.04,1.08c1,0.22,2.02,0.32,3.04,0.29
	c0.9-0.02,1.8-0.17,2.66-0.44c0.72-0.22,1.38-0.59,1.95-1.07c0.5-0.43,0.84-1.01,0.98-1.65c0.19-0.7,0.15-1.44-0.11-2.11
	c-0.25-0.58-0.65-1.09-1.15-1.49c-0.54-0.43-1.14-0.79-1.77-1.08c-0.67-0.31-1.31-0.61-1.92-0.89l-6.18-2.74
	c-1.19-0.54-2.34-1.19-3.42-1.92c-1.01-0.68-1.91-1.52-2.65-2.49c-0.72-0.95-1.24-2.04-1.51-3.2c-0.29-1.3-0.28-2.65,0.03-3.94
	c0.3-1.65,1.04-3.18,2.14-4.44c1.01-1.11,2.27-1.97,3.67-2.51c1.46-0.55,3-0.85,4.56-0.88c1.63-0.04,3.27,0.11,4.86,0.45
	c1.68,0.35,3.33,0.85,4.92,1.48c1.37,0.55,2.64,1.33,3.73,2.33c1.05,0.98,1.87,2.17,2.4,3.5c0.61,1.62,0.93,3.34,0.94,5.08
	l-6.05,0.1c0.03-1.71-0.59-3.37-1.74-4.63c-1.49-1.31-3.33-2.17-5.3-2.47c-1.79-0.48-3.69-0.45-5.46,0.09
	c-1.34,0.41-2.35,1.53-2.63,2.9c-0.15,0.64-0.07,1.31,0.24,1.88c0.32,0.59,0.75,1.11,1.27,1.54c0.54,0.45,1.12,0.84,1.75,1.17
	c0.63,0.32,1.2,0.6,1.71,0.82L438.3,109.09z M446.55,124.15l7.04,2.06l-2.06,7.04l-7.03-2.06L446.55,124.15z"/>
</svg>
