<svg id="Livello_1" data-name="Livello 1" xmlns="http://www.w3.org/2000/svg" viewBox="0 0 700 700"><defs><style>.cls-1{fill:#1d1d1b;}.cls-2{fill:#fff;}</style></defs><title>Senza titolo-3</title><path class="cls-1" d="M356.0318,147.0052a.4534.4534,0,0,0-.4307-.2872c-.381,0-.5744.1436-.5744.4308v95.2193H344.9733V147.1488a.3808.3808,0,0,0-.4308-.4308c-.2872,0-.4308.0938-.4308.2872a171.79,171.79,0,0,1-7.8278,17.09q-4.3788,8.3288-8.401,14.9366-4.45,7.7554-9.1919,14.6494l-12.4945-14.2186a107.9957,107.9957,0,0,0,15.9417-13.86q7.7554-8.115,14.0739-15.7251Q343.396,141.1153,350,131.7814q6.7515,9.4785,14.075,18.3839,4.3077,5.1692,7.54,8.76,3.2307,3.5885,6.8215,7.2535,3.592,3.6615,7.5407,7.1087a96.4213,96.4213,0,0,0,7.8267,6.1755l-12.4944,14.2186q-4.74-6.7533-9.192-14.5058-4.3075-6.894-8.4728-15.08A184.8928,184.8928,0,0,1,356.0318,147.0052Z"/><path class="cls-2" d="M253.7263,171.1854a.4533.4533,0,0,0-.5166-.0333c-.33.1905-.4256.4115-.282.66l47.61,82.4624-8.7066,5.0267-47.61-82.4624a.3807.3807,0,0,0-.5884-.1576c-.2487.1435-.3262.2966-.23.464a171.8253,171.8253,0,0,1,1.7661,18.7147q.3722,9.4022.1928,17.1359.0238,8.9415-.6358,17.2827l-17.93-6.0665a107.988,107.988,0,0,0,6.8761-19.9736q2.6589-10.9056,4.3258-20.6553,1.84-11.181,2.8923-22.5661,10.5863,4.8329,21.3813,8.8833,6.3152,2.3229,10.9094,3.8166,4.5921,1.4925,9.5344,2.871,4.9416,1.3749,10.0848,2.386a96.3885,96.3885,0,0,0,9.8658,1.4347L298.9552,198.97q-7.4817-3.4783-15.2133-7.9664-7.1775-3.8166-14.8778-8.8234A184.8829,184.8829,0,0,1,253.7263,171.1854Z"/><path class="cls-1" d="M177.2173,243.2789a.4533.4533,0,0,0-.4641.2294c-.19.33-.1629.5692.0858.7128l82.4624,47.61-5.0267,8.7066-82.4624-47.61a.3807.3807,0,0,0-.5884.1577c-.1436.2487-.1342.42.0333.5166a171.8158,171.8158,0,0,1,10.8868,15.3243q5.0233,7.9566,8.7349,14.7438,4.4915,7.7316,8.0908,15.2851l-18.5609,3.7112a107.9924,107.9924,0,0,0-4.032-20.7357q-3.15-10.7739-6.5814-20.0509-3.9969-10.603-8.7782-20.989,11.5844-1.1078,22.9584-2.9974,6.63-1.146,11.3561-2.1494,4.7232-1.0036,9.6925-2.281,4.9669-1.28,9.9267-2.976a96.3751,96.3751,0,0,0,9.2614-3.69l6.0665,17.93q-8.2185.7285-17.1584.7076-8.1242.2835-17.2962-.2024A184.9,184.9,0,0,1,177.2173,243.2789Z"/><path class="cls-2" d="M147.0052,343.9681a.4535.4535,0,0,0-.2872.4308c0,.381.1436.5743.4308.5743h95.2193v10.0535H147.1488a.3808.3808,0,0,0-.4308.4308c0,.2871.0938.4307.2872.4307a171.8134,171.8134,0,0,1,17.09,7.8279q8.3288,4.3788,14.9366,8.401,7.7554,4.45,14.6494,9.1919l-14.2186,12.4944a108,108,0,0,0-13.86-15.9416q-8.115-7.7556-15.7251-14.0739Q141.1153,356.6038,131.7814,350q9.4785-6.7515,18.3839-14.0751,5.1692-4.3075,8.76-7.5395,3.5885-3.2307,7.2535-6.8216,3.6615-3.5919,7.1087-7.5406a96.4387,96.4387,0,0,0,6.1755-7.8267l14.2186,12.4944q-6.7533,4.74-14.5058,9.1919-6.894,4.3077-15.08,8.4729A184.8656,184.8656,0,0,1,147.0052,343.9681Z"/><path class="cls-1" d="M171.1854,446.2736a.4535.4535,0,0,0-.0333.5167c.1905.33.4115.4256.66.282l82.4624-47.61,5.0267,8.7065-82.4624,47.61a.3807.3807,0,0,0-.1576.5884c.1435.2487.2966.3261.464.2295a171.7755,171.7755,0,0,1,18.7147-1.7661q9.4022-.3721,17.1359-.1928,8.9415-.0238,17.2827.6357l-6.0665,17.93a107.988,107.988,0,0,0-19.9736-6.8761q-10.9056-2.6589-20.6553-4.3258-11.181-1.84-22.5661-2.8923,4.8329-10.5863,8.8833-21.3813,2.3229-6.3152,3.8166-10.9094,1.4925-4.5923,2.871-9.5344,1.3749-4.9416,2.386-10.0848a96.3943,96.3943,0,0,0,1.4347-9.8659l18.5609,3.7112q-3.4783,7.4817-7.9664,15.2134-3.8166,7.1775-8.8234,14.8778A184.8644,184.8644,0,0,1,171.1854,446.2736Z"/><path class="cls-2" d="M243.2789,522.7827a.4533.4533,0,0,0,.2294.4641c.33.1905.5692.1628.7128-.0859l47.61-82.4624,8.7066,5.0267-47.61,82.4624a.3808.3808,0,0,0,.1577.5885c.2487.1436.42.1341.5166-.0333a171.8158,171.8158,0,0,1,15.3243-10.8868q7.9566-5.0235,14.7438-8.735,7.7316-4.4913,15.2851-8.0907l3.7112,18.5609a107.9848,107.9848,0,0,0-20.7357,4.032q-10.7739,3.15-20.0509,6.5814-10.603,3.9969-20.989,8.7782-1.1078-11.5843-2.9974-22.9584-1.146-6.63-2.1494-11.3562-1.0036-4.7231-2.281-9.6925-1.28-4.967-2.976-9.9267a96.3959,96.3959,0,0,0-3.69-9.2614l17.93-6.0664q.7285,8.2185.7076,17.1583.2835,8.1241-.2024,17.2963A184.9033,184.9033,0,0,1,243.2789,522.7827Z"/><path class="cls-1" d="M343.9681,552.9948a.4534.4534,0,0,0,.4308.2871c.381,0,.5743-.1435.5743-.4307V457.6318h10.0535v95.2194a.3808.3808,0,0,0,.4308.4308c.2871,0,.4307-.0938.4307-.2872a171.8151,171.8151,0,0,1,7.8279-17.09q4.3788-8.3286,8.401-14.9366,4.45-7.7554,9.1919-14.6493l12.4944,14.2186a107.9885,107.9885,0,0,0-15.9416,13.86q-7.7556,8.115-14.0739,15.7251Q356.6038,558.8847,350,568.2185q-6.7515-9.4785-14.0751-18.3838-4.3075-5.1692-7.5395-8.76-3.2307-3.5886-6.8216-7.2535-3.5919-3.6615-7.5406-7.1088a96.4147,96.4147,0,0,0-7.8267-6.1754l12.4944-14.2186q4.74,6.7533,9.1919,14.5058,4.3077,6.894,8.4729,15.08A184.8537,184.8537,0,0,1,343.9681,552.9948Z"/><path class="cls-1" d="M344.6535,84.5287a.4019.4019,0,0,0,.3818.2546c.3377,0,.5091-.1273.5091-.3819V0h8.9113V84.4014a.3376.3376,0,0,0,.3819.3819c.2545,0,.3818-.0832.3818-.2546A152.2961,152.2961,0,0,1,362.1578,69.38q3.8814-7.3824,7.4466-13.24,3.9444-6.8744,8.1476-12.9851l11.0749,12.6033a95.7228,95.7228,0,0,0-14.1305,12.285q-6.8743,7.1931-12.475,13.9386Q355.8536,89.7495,350,98.0229q-5.9844-8.4017-12.476-16.2953-3.8183-4.5819-6.6829-7.7647-2.8636-3.1809-6.0466-6.43-3.1839-3.2454-6.684-6.3011a85.42,85.42,0,0,0-6.9375-5.4738l11.075-12.6033q4.2015,5.986,8.1476,12.8579,3.8182,6.1107,7.51,13.3669A163.8634,163.8634,0,0,1,344.6535,84.5287Z"/><path class="cls-2" d="M276.1266,94.9582a.402.402,0,0,0,.4347.1471c.3262-.0874.4588-.2547.3929-.5006L255.11,13.0792l8.6076-2.3064,21.8448,81.5255a.3374.3374,0,0,0,.4676.27c.2459-.0659.3473-.1792.3029-.3447a152.2985,152.2985,0,0,1,2.7813-16.4284q1.8384-8.1354,3.7662-14.7158,2.0308-7.661,4.5092-14.6514l13.96,9.3074a95.7209,95.7209,0,0,0-10.4695,15.5237q-4.7784,8.7273-8.4423,16.6924-4.14,9.1509-7.6534,18.6573-7.9549-6.5666-16.2684-12.511-4.8739-3.4376-8.4649-5.7705-3.5893-2.3313-7.5046-4.6454-3.9153-2.3109-8.087-4.3565a85.4627,85.4627,0,0,0-8.1179-3.4917l7.4356-15.04q5.6078,4.6945,11.1979,10.3109,5.27,4.9143,10.7139,10.9676A163.8581,163.8581,0,0,1,276.1266,94.9582Z"/><path class="cls-1" d="M212.6341,122.7684a.402.402,0,0,0,.458.0295c.2924-.1688.3772-.3648.25-.5852L171.1413,49.1189l7.7174-4.4556,42.2007,73.0938a.3375.3375,0,0,0,.5216.14c.2205-.1273.2891-.2629.2034-.4113a152.28,152.28,0,0,1-1.5654-16.5885q-.33-8.334-.1709-15.1891-.0212-7.9255.5635-15.3192l15.8928,5.3773A95.7214,95.7214,0,0,0,230.41,93.47q-2.3568,9.6666-3.8343,18.3087-1.6311,9.91-2.5637,20.0023-9.3836-4.2838-18.9522-7.8741-5.5976-2.0589-9.67-3.383-4.07-1.3229-8.4512-2.5448-4.38-1.2187-8.939-2.1149a85.44,85.44,0,0,0-8.745-1.2718l3.29-16.4522q6.6316,3.0832,13.4849,7.0614,6.3621,3.383,13.1875,7.821A163.8591,163.8591,0,0,1,212.6341,122.7684Z"/><path class="cls-2" d="M158.5029,166.064a.402.402,0,0,0,.45-.09c.2387-.2388.27-.45.09-.63L99.362,105.6632l6.3012-6.3012,59.6809,59.6808a.3375.3375,0,0,0,.54,0c.18-.18.2112-.3288.09-.45a152.27,152.27,0,0,1-5.8055-15.618q-2.4757-7.9647-4.0963-14.6273-2.0718-7.65-3.4206-14.9431l16.743,1.0807a95.723,95.723,0,0,0-1.305,18.6786q.2255,9.9472,1.035,18.6772.99,9.9951,2.7006,19.9843-10.1726-1.7091-20.3443-2.7006-5.94-.54-10.2161-.765-4.2741-.2242-8.8219-.2707-4.5462-.0435-9.1818.2708a85.4548,85.4548,0,0,0-8.7762,1.0349l-1.0806-16.743q7.2036,1.2618,14.853,3.3306,7.0209,1.621,14.7624,4.1413A163.8724,163.8724,0,0,1,158.5029,166.064Z"/><path class="cls-1" d="M117.4218,221.8946a.402.402,0,0,0,.4114-.2034c.1689-.2925.1443-.5046-.0761-.6318L44.6633,178.8587l4.4556-7.7174,73.0938,42.2007a.3375.3375,0,0,0,.5216-.14c.1273-.22.1189-.3722-.0295-.4579a152.3027,152.3027,0,0,1-9.65-13.5833q-4.4526-7.0525-7.7425-13.0687-3.9811-6.8532-7.1716-13.5486l16.4522-3.29a95.7319,95.7319,0,0,0,3.5739,18.38q2.7923,9.55,5.8337,17.7729,3.5428,9.3984,7.7809,18.6044-10.2682.9819-20.35,2.6569-5.8771,1.0158-10.0659,1.9052-4.1865.89-8.5914,2.0218-4.4027,1.1346-8.7989,2.6379a85.4778,85.4778,0,0,0-8.2092,3.2711l-5.3773-15.8927q7.2849-.6458,15.2091-.6272,7.201-.2514,15.3311.1794A163.8589,163.8589,0,0,1,117.4218,221.8946Z"/><path class="cls-2" d="M92.1906,286.4553a.4019.4019,0,0,0,.3447-.3029c.0874-.3262.0089-.5247-.237-.5906L10.7728,263.7171l2.3064-8.6076,81.5255,21.8447a.3374.3374,0,0,0,.4676-.27c.0659-.2459.0186-.39-.147-.4347a152.2731,152.2731,0,0,1-12.8367-10.6229q-6.1263-5.66-10.8612-10.6195-5.6192-5.5893-10.4339-11.2308l15.04-7.4356a95.7148,95.7148,0,0,0,8.2092,16.8287q5.1687,8.5019,10.2348,15.6574,5.8546,8.1612,12.331,15.9567-9.6642,3.606-18.969,7.8333-5.4141,2.5023-9.23,4.4456-3.8136,1.9428-7.7753,4.1765-3.959,2.2354-7.8164,4.8253a85.45,85.45,0,0,0-7.0828,5.2844L46.428,297.3891q6.8694-2.5092,14.5284-4.5422,6.8908-2.1064,14.8553-3.7947A163.8917,163.8917,0,0,1,92.1906,286.4553Z"/><path class="cls-1" d="M84.5287,355.3465a.4019.4019,0,0,0,.2546-.3818c0-.3377-.1273-.5091-.3819-.5091H0v-8.9113H84.4014a.3375.3375,0,0,0,.3819-.3818c0-.2546-.0832-.3818-.2546-.3818A152.3189,152.3189,0,0,1,69.38,337.8422q-7.3824-3.8814-13.24-7.4466-6.8744-3.9445-12.9851-8.1476l12.6033-11.075a95.7183,95.7183,0,0,0,12.285,14.1306q7.1931,6.8743,13.9386,12.4749Q89.7495,344.1463,98.0229,350q-8.4017,5.9845-16.2953,12.476-4.5819,3.8183-7.7647,6.683-3.1809,2.8636-6.43,6.0466-3.2454,3.1839-6.3011,6.6839a85.4546,85.4546,0,0,0-5.4738,6.9375L43.1552,377.752q5.986-4.2017,12.8579-8.1477,6.1107-3.8181,13.3669-7.51A163.8629,163.8629,0,0,1,84.5287,355.3465Z"/><path class="cls-2" d="M94.9582,423.8734a.402.402,0,0,0,.1471-.4347c-.0874-.3262-.2547-.4589-.5006-.393L13.0792,444.8905l-2.3064-8.6077,81.5255-21.8447a.3375.3375,0,0,0,.27-.4676c-.0659-.2459-.1792-.3473-.3447-.303a152.2738,152.2738,0,0,1-16.4284-2.7813Q67.66,409.0478,61.0794,407.12q-7.661-2.0308-14.6514-4.5092l9.3074-13.9595a95.7206,95.7206,0,0,0,15.5237,10.4694q8.7273,4.7785,16.6924,8.4424,9.1509,4.14,18.6573,7.6533-6.5666,7.9551-12.511,16.2684-3.4376,4.8741-5.7705,8.4649-2.3313,3.5893-4.6454,7.5046-2.3109,3.9154-4.3565,8.0871a85.4613,85.4613,0,0,0-3.4917,8.1178l-15.04-7.4356q4.6945-5.6077,10.3109-11.1978,4.9143-5.27,10.9676-10.714A163.8572,163.8572,0,0,1,94.9582,423.8734Z"/><path class="cls-1" d="M122.7684,487.3658a.4018.4018,0,0,0,.0295-.4579c-.1688-.2924-.3648-.3773-.5852-.25L49.1189,528.8587l-4.4556-7.7174,73.0938-42.2008a.3375.3375,0,0,0,.14-.5216c-.1273-.22-.2629-.2891-.4113-.2033a152.3048,152.3048,0,0,1-16.5885,1.5654q-8.334.33-15.1891.1709-7.9255.0211-15.3192-.5635l5.3773-15.8929A95.714,95.714,0,0,0,93.47,469.59q9.6666,2.357,18.3087,3.8344,9.91,1.6309,20.0023,2.5637-4.2838,9.3835-7.8741,18.9521-2.0589,5.5977-3.383,9.67-1.3229,4.0706-2.5448,8.4512-1.2187,4.38-2.1149,8.9391a85.4378,85.4378,0,0,0-1.2718,8.7449l-16.4522-3.2895q3.0832-6.6318,7.0614-13.485,3.383-6.362,7.821-13.1875A163.8763,163.8763,0,0,1,122.7684,487.3658Z"/><path class="cls-2" d="M166.064,541.4971a.402.402,0,0,0-.09-.45c-.2388-.2388-.45-.27-.63-.09L105.6632,600.638l-6.3012-6.3013,59.6808-59.6808a.3375.3375,0,0,0,0-.54c-.18-.18-.3288-.2112-.45-.09a152.2934,152.2934,0,0,1-15.618,5.8055q-7.9647,2.4756-14.6273,4.0963-7.65,2.0717-14.9431,3.4206l1.0807-16.743a95.7232,95.7232,0,0,0,18.6786,1.3049q9.9472-.2253,18.6772-1.0349,9.9951-.99,19.9843-2.7006-1.7091,10.1726-2.7006,20.3443-.54,5.94-.765,10.2161-.2242,4.2741-.2707,8.8218-.0435,4.5463.2708,9.1819a85.45,85.45,0,0,0,1.0349,8.7761l-16.743,1.0807q1.2618-7.2038,3.3306-14.8531,1.621-7.0207,4.1413-14.7624A163.8707,163.8707,0,0,1,166.064,541.4971Z"/><path class="cls-1" d="M221.8946,582.5781a.4019.4019,0,0,0-.2034-.4113c-.2925-.1689-.5046-.1444-.6318.0761l-42.2007,73.0938-7.7174-4.4557,42.2007-73.0938a.3375.3375,0,0,0-.14-.5216c-.22-.1272-.3722-.1189-.4579.03a152.2813,152.2813,0,0,1-13.5833,9.65q-7.0525,4.4527-13.0687,7.7426-6.8532,3.981-13.5486,7.1715l-3.29-16.4522a95.7166,95.7166,0,0,0,18.38-3.5739q9.55-2.7921,17.7729-5.8337,9.3984-3.5427,18.6044-7.7809.9819,10.2684,2.6569,20.35,1.0158,5.8772,1.9052,10.066.89,4.1865,2.0218,8.5913,1.1346,4.4026,2.6379,8.7989a85.49,85.49,0,0,0,3.2711,8.2093l-15.8927,5.3772q-.6458-7.2848-.6272-15.209-.2514-7.2012.1794-15.3312A163.865,163.865,0,0,1,221.8946,582.5781Z"/><path class="cls-2" d="M286.4553,607.8093a.402.402,0,0,0-.3029-.3447c-.3262-.0874-.5247-.0088-.5906.2371l-21.8447,81.5255-8.6076-2.3064,21.8447-81.5255a.3375.3375,0,0,0-.27-.4677c-.2459-.0659-.39-.0185-.4347.1471a152.289,152.289,0,0,1-10.6229,12.8367q-5.66,6.1263-10.6195,10.8612-5.5893,5.6191-11.2308,10.4338l-7.4356-15.04a95.7218,95.7218,0,0,0,16.8287-8.2092q8.5019-5.1687,15.6574-10.2349,8.1612-5.8545,15.9567-12.3309,3.606,9.6642,7.8333,18.969,2.5023,5.414,4.4456,9.23,1.9428,3.8136,4.1765,7.7753,2.2354,3.9589,4.8253,7.8163a85.4521,85.4521,0,0,0,5.2844,7.0829l-13.9595,9.3074q-2.5092-6.87-4.5422-14.5285-2.1064-6.8907-3.7947-14.8552A163.8983,163.8983,0,0,1,286.4553,607.8093Z"/><path class="cls-1" d="M355.3465,615.4713a.4018.4018,0,0,0-.3818-.2546c-.3377,0-.5091.1273-.5091.3818V700h-8.9113V615.5985a.3375.3375,0,0,0-.3818-.3818c-.2546,0-.3818.0831-.3818.2545a152.3205,152.3205,0,0,1-6.9385,15.1488q-3.8814,7.3824-7.4466,13.24-3.9445,6.8744-8.1476,12.985l-11.075-12.6032a95.7192,95.7192,0,0,0,14.1306-12.2851q6.8743-7.193,12.4749-13.9386Q344.1463,610.25,350,601.9771q5.9845,8.4017,12.476,16.2952,3.8183,4.5819,6.683,7.7648,2.8636,3.1809,6.0466,6.4294,3.1839,3.2455,6.6839,6.3011a85.4566,85.4566,0,0,0,6.9375,5.4739L377.752,656.8447q-4.2017-5.986-8.1477-12.8578-3.8181-6.1107-7.51-13.3669A163.8867,163.8867,0,0,1,355.3465,615.4713Z"/><path class="cls-2" d="M431.1359,182.18q-7.7018,5.006-14.8778,8.8234-7.7346,4.49-15.2133,7.9664l-3.7112-18.5609a96.3885,96.3885,0,0,0,9.8658-1.4347q5.143-1.0119,10.0848-2.386,4.9393-1.3782,9.5344-2.871,4.5939-1.4953,10.9094-3.8166,10.7969-4.0513,21.3813-8.8833,1.05,11.3888,2.8923,22.5661,1.6662,9.7486,4.3258,20.6553a107.988,107.988,0,0,0,6.8761,19.9736l-17.93,6.0665q-.6582-8.34-.6358-17.2827-.18-7.7336.1928-17.1359a171.8253,171.8253,0,0,1,1.7661-18.7147c.0967-.1674.0192-.32-.2295-.464a.3807.3807,0,0,0-.5884.1576l-47.61,82.4624-8.7066-5.0267,47.61-82.4624c.1436-.2487.048-.47-.282-.66a.4533.4533,0,0,0-.5166.0333A184.8829,184.8829,0,0,1,431.1359,182.18Z"/><path class="cls-1" d="M504.1758,245.2315q-9.173.4843-17.2962.2024-8.9433.0208-17.1584-.7076l6.0665-17.93a96.3751,96.3751,0,0,0,9.2614,3.69q4.96,1.6953,9.9267,2.976,4.9667,1.2762,9.6925,2.281,4.7261,1.0018,11.3561,2.1494,11.3762,1.89,22.9584,2.9974-4.7849,10.3881-8.7782,20.989-3.4314,9.2757-6.5814,20.0509a107.9924,107.9924,0,0,0-4.032,20.7357L501.03,298.9551q3.6-7.5519,8.0908-15.2851,3.7107-6.7875,8.7349-14.7438a171.8158,171.8158,0,0,1,10.8868-15.3243c.1675-.0966.1769-.2679.0333-.5166a.3807.3807,0,0,0-.5884-.1577l-82.4624,47.61-5.0267-8.7066,82.4624-47.61c.2487-.1436.2763-.3829.0858-.7128a.4533.4533,0,0,0-.4641-.2294A184.9,184.9,0,0,1,504.1758,245.2315Z"/><path class="cls-2" d="M535.9044,336.3557q-8.1862-4.167-15.08-8.4729-7.7554-4.4535-14.5058-9.1919l14.2186-12.4944a96.4387,96.4387,0,0,0,6.1755,7.8267q3.4477,3.948,7.1087,7.5406,3.6633,3.5886,7.2535,6.8216,3.592,3.2307,8.76,7.5395Q558.7418,343.25,568.2186,350q-9.3378,6.6039-18.0967,13.7879-7.6095,6.3173-15.7251,14.0739a108,108,0,0,0-13.86,15.9416L506.3185,381.309q6.894-4.74,14.6494-9.1919,6.6073-4.0229,14.9366-8.401a171.8134,171.8134,0,0,1,17.09-7.8279c.1934,0,.2872-.1436.2872-.4307a.3808.3808,0,0,0-.4308-.4308H457.6319V344.9732h95.2193c.2872,0,.4308-.1933.4308-.5743a.4535.4535,0,0,0-.2872-.4308A184.8656,184.8656,0,0,1,535.9044,336.3557Z"/><path class="cls-1" d="M517.82,431.1359q-5.006-7.7019-8.8234-14.8778-4.49-7.7346-7.9664-15.2134l18.5609-3.7112a96.3943,96.3943,0,0,0,1.4347,9.8659q1.0119,5.143,2.386,10.0848,1.3782,4.9393,2.871,9.5344,1.4954,4.5938,3.8166,10.9094,4.0513,10.7969,8.8833,21.3813-11.3887,1.05-22.5661,2.8923-9.7486,1.666-20.6553,4.3258a107.988,107.988,0,0,0-19.9736,6.8761l-6.0665-17.93q8.34-.6581,17.2827-.6357,7.7335-.18,17.1359.1928a171.7755,171.7755,0,0,1,18.7147,1.7661c.1674.0966.3205.0192.464-.2295a.3807.3807,0,0,0-.1576-.5884l-82.4624-47.61,5.0267-8.7065,82.4624,47.61c.2487.1436.47.0479.66-.282a.4535.4535,0,0,0-.0333-.5167A184.8644,184.8644,0,0,1,517.82,431.1359Z"/><path class="cls-2" d="M454.7685,504.1758q-.4844-9.173-.2024-17.2963-.0208-8.9432.7076-17.1583l17.93,6.0664a96.3959,96.3959,0,0,0-3.69,9.2614q-1.6953,4.96-2.976,9.9267-1.2762,4.9668-2.281,9.6925-1.0019,4.7262-2.1494,11.3562-1.89,11.376-2.9974,22.9584-10.3881-4.7849-20.989-8.7782-9.2757-3.4314-20.0509-6.5814a107.9848,107.9848,0,0,0-20.7357-4.032l3.7112-18.5609q7.5519,3.6,15.2851,8.0907,6.7875,3.7109,14.7438,8.735a171.8158,171.8158,0,0,1,15.3243,10.8868c.0966.1674.2679.1769.5166.0333a.3808.3808,0,0,0,.1577-.5885l-47.61-82.4624,8.7066-5.0267,47.61,82.4624c.1436.2487.3829.2764.7128.0859a.4533.4533,0,0,0,.2294-.4641A184.9033,184.9033,0,0,1,454.7685,504.1758Z"/><path class="cls-2" d="M434.3119,82.072q5.4456-6.053,10.7139-10.9676,5.5923-5.6184,11.1979-10.3109l7.4356,15.04a85.4627,85.4627,0,0,0-8.1179,3.4917q-4.1712,2.0463-8.087,4.3565-3.9129,2.3132-7.5046,4.6454-3.59,2.3343-8.4649,5.7705-8.3148,5.9457-16.2684,12.511-3.5119-9.51-7.6534-18.6573-3.663-7.9644-8.4423-16.6924a95.7209,95.7209,0,0,0-10.4695-15.5237l13.96-9.3074q2.4768,6.99,4.5092,14.6514,1.9284,6.58,3.7662,14.7158a152.2985,152.2985,0,0,1,2.7813,16.4284c-.0444.1655.057.2788.3029.3447a.3374.3374,0,0,0,.4676-.27l21.8448-81.5255,8.6076,2.3064L423.0458,94.6047c-.0659.2459.0667.4132.3929.5006a.402.402,0,0,0,.4347-.1471A163.8581,163.8581,0,0,1,434.3119,82.072Z"/><path class="cls-1" d="M500.7839,113.023q6.8268-4.4373,13.1875-7.821,6.8558-3.9795,13.4849-7.0614l3.29,16.4522a85.44,85.44,0,0,0-8.745,1.2718q-4.5588.8969-8.939,2.1149-4.3782,1.2216-8.4512,2.5448-4.072,1.3254-9.67,3.383-9.57,3.5911-18.9522,7.8741-.9309-10.0948-2.5637-20.0023-1.4769-8.6412-3.8343-18.3087a95.7214,95.7214,0,0,0-6.0949-17.7044l15.8928-5.3773q.5834,7.3928.5635,15.3192.16,6.8548-.1709,15.1891a152.28,152.28,0,0,1-1.5654,16.5885c-.0857.1484-.0171.284.2034.4113a.3375.3375,0,0,0,.5216-.14l42.2007-73.0938,7.7174,4.4556L486.658,122.2127c-.1273.22-.0425.4164.25.5852a.402.402,0,0,0,.458-.0295A163.8591,163.8591,0,0,1,500.7839,113.023Z"/><path class="cls-2" d="M556.98,160.1235q7.7425-2.5191,14.7624-4.1413,7.6522-2.07,14.853-3.3306l-1.0806,16.743a85.4548,85.4548,0,0,0-8.7762-1.0349q-4.6354-.3137-9.1818-.2708-4.5452.0468-8.8219.2707-4.2762.2265-10.2161.765-10.1736.9918-20.3443,2.7006,1.7136-9.9918,2.7006-19.9843.81-8.7289,1.035-18.6772a95.723,95.723,0,0,0-1.305-18.6786l16.743-1.0807q-1.35,7.292-3.4206,14.9431-1.62,6.6625-4.0963,14.6273a152.27,152.27,0,0,1-5.8055,15.618c-.1212.1212-.09.27.09.45a.3375.3375,0,0,0,.54,0L594.3368,99.362l6.3012,6.3012L540.9571,165.344c-.18.18-.1487.3912.09.63a.402.402,0,0,0,.45.09A163.8724,163.8724,0,0,1,556.98,160.1235Z"/><path class="cls-1" d="M599.0712,220.1638q8.1308-.4295,15.3311-.1794,7.9272-.0184,15.2091.6272l-5.3773,15.8927a85.4778,85.4778,0,0,0-8.2092-3.2711q-4.3965-1.5025-8.7989-2.6379-4.4025-1.1312-8.5914-2.0218-4.1892-.888-10.0659-1.9052-10.0838-1.6752-20.35-2.6569Q572.46,214.8035,576,205.407q3.0416-8.222,5.8337-17.7729a95.7319,95.7319,0,0,0,3.5739-18.38l16.4522,3.29q-3.1912,6.6941-7.1716,13.5486-3.2892,6.0163-7.7425,13.0687a152.3027,152.3027,0,0,1-9.65,13.5833c-.1484.0857-.1568.2375-.0295.4579a.3375.3375,0,0,0,.5216.14l73.0938-42.2007,4.4556,7.7174-73.0938,42.2007c-.22.1272-.245.3393-.0761.6318a.402.402,0,0,0,.4114.2034A163.8589,163.8589,0,0,1,599.0712,220.1638Z"/><path class="cls-2" d="M624.1883,289.0522q7.965,1.69,14.8553,3.7947,7.6619,2.0339,14.5284,4.5422l-9.3074,13.9595a85.45,85.45,0,0,0-7.0828-5.2844q-3.8578-2.5893-7.8164-4.8253-3.96-2.2321-7.7753-4.1765-3.8166-1.9421-9.23-4.4456-9.3064-4.2279-18.969-7.8333,6.48-7.7964,12.331-15.9567,5.0658-7.1544,10.2348-15.6574a95.7148,95.7148,0,0,0,8.2092-16.8287l15.04,7.4356q-4.8152,5.64-10.4339,11.2308-4.7341,4.96-10.8612,10.6195A152.2731,152.2731,0,0,1,605.0747,276.25c-.1656.0444-.2129.1888-.147.4347a.3374.3374,0,0,0,.4676.27L686.9208,255.11l2.3064,8.6076-81.5255,21.8447c-.2459.0659-.3244.2644-.237.5906a.4019.4019,0,0,0,.3447.3029A163.8917,163.8917,0,0,1,624.1883,289.0522Z"/><path class="cls-1" d="M630.62,362.0941q7.2563,3.6936,13.3669,7.51,6.8745,3.9477,12.8579,8.1477l-12.6033,11.0749a85.4546,85.4546,0,0,0-5.4738-6.9375q-3.0561-3.5-6.3011-6.6839-3.247-3.1809-6.4295-6.0466-3.1839-2.8637-7.7647-6.683-7.8952-6.4925-16.2953-12.476,8.277-5.8536,16.0407-12.2214,6.7451-5.6,13.9386-12.4749a95.7183,95.7183,0,0,0,12.285-14.1306l12.6033,11.075q-6.1107,4.2015-12.9851,8.1476-5.8566,3.5656-13.24,7.4466a152.3189,152.3189,0,0,1-15.1487,6.9385c-.1714,0-.2546.1272-.2546.3818a.3375.3375,0,0,0,.3819.3818H700v8.9113H615.5986c-.2546,0-.3819.1714-.3819.5091a.4019.4019,0,0,0,.2546.3818A163.8629,163.8629,0,0,1,630.62,362.0941Z"/><path class="cls-2" d="M617.928,434.3118q6.053,5.4457,10.9676,10.714,5.6184,5.5921,10.3109,11.1978l-15.04,7.4356a85.4613,85.4613,0,0,0-3.4917-8.1178q-2.0463-4.1714-4.3565-8.0871-2.3131-3.9129-4.6454-7.5046-2.3343-3.59-5.77-8.4649-5.9457-8.3146-12.511-16.2684,9.51-3.512,18.6573-7.6533,7.9644-3.6632,16.6924-8.4424a95.7206,95.7206,0,0,0,15.5237-10.4694l9.3074,13.9595q-6.99,2.4769-14.6514,4.5092-6.58,1.9286-14.7158,3.7662a152.2738,152.2738,0,0,1-16.4284,2.7813c-.1655-.0443-.2788.0571-.3447.303a.3375.3375,0,0,0,.27.4676l81.5255,21.8447-2.3064,8.6077-81.5255-21.8448c-.2459-.0659-.4132.0668-.5006.393a.402.402,0,0,0,.1471.4347A163.8572,163.8572,0,0,1,617.928,434.3118Z"/><path class="cls-1" d="M586.977,500.7838q4.4373,6.8268,7.821,13.1875,3.98,6.8559,7.0614,13.485l-16.4522,3.2895a85.4378,85.4378,0,0,0-1.2718-8.7449q-.8968-4.5588-2.1149-8.9391-1.2216-4.3782-2.5448-8.4512-1.3254-4.0719-3.383-9.67-3.5911-9.57-7.8741-18.9521,10.0948-.9309,20.0023-2.5637,8.6412-1.4769,18.3087-3.8344a95.714,95.714,0,0,0,17.7044-6.0949l5.3773,15.8929q-7.3927.5832-15.3192.5635-6.8548.16-15.1891-.1709a152.3048,152.3048,0,0,1-16.5885-1.5654c-.1484-.0858-.284-.0171-.4113.2033a.3375.3375,0,0,0,.14.5216l73.0938,42.2008-4.4556,7.7174-73.0938-42.2008c-.22-.1273-.4164-.0424-.5852.25a.4018.4018,0,0,0,.0295.4579A163.8763,163.8763,0,0,1,586.977,500.7838Z"/><path class="cls-2" d="M539.8765,556.98q2.5191,7.7427,4.1413,14.7624,2.07,7.6523,3.3306,14.8531l-16.743-1.0807a85.45,85.45,0,0,0,1.0349-8.7761q.3136-4.6356.2708-9.1819-.0468-4.5452-.2707-8.8218-.2265-4.2763-.765-10.2161-.9918-10.1736-2.7006-20.3443,9.9918,1.7134,19.9843,2.7006,8.729.81,18.6772,1.0349a95.7232,95.7232,0,0,0,18.6786-1.3049l1.0807,16.743q-7.292-1.35-14.9431-3.4206-6.6626-1.62-14.6273-4.0963a152.2934,152.2934,0,0,1-15.618-5.8055c-.1212-.1212-.27-.09-.45.09a.3375.3375,0,0,0,0,.54l59.6808,59.6808-6.3012,6.3013L534.656,540.9571c-.18-.18-.3912-.1488-.63.09a.402.402,0,0,0-.09.45A163.8707,163.8707,0,0,1,539.8765,556.98Z"/><path class="cls-1" d="M479.8362,599.0711q.4294,8.1309.1794,15.3312.0184,7.9272-.6272,15.209l-15.8927-5.3772a85.49,85.49,0,0,0,3.2711-8.2093q1.5026-4.3964,2.6379-8.7989,1.1311-4.4023,2.0218-8.5913.888-4.1892,1.9052-10.066,1.6752-10.0836,2.6569-20.35,9.2079,4.2413,18.6044,7.7809,8.2219,3.0417,17.7729,5.8337a95.7166,95.7166,0,0,0,18.38,3.5739l-3.29,16.4522q-6.6941-3.1911-13.5486-7.1715-6.0163-3.2892-13.0687-7.7426a152.2813,152.2813,0,0,1-13.5833-9.65c-.0857-.1485-.2375-.1568-.4579-.03a.3375.3375,0,0,0-.14.5216l42.2007,73.0938-7.7174,4.4557-42.2007-73.0938c-.1272-.2205-.3393-.245-.6318-.0761a.4019.4019,0,0,0-.2034.4113A163.865,163.865,0,0,1,479.8362,599.0711Z"/><path class="cls-2" d="M410.9478,624.1883q-1.69,7.9648-3.7947,14.8552-2.0339,7.6618-4.5422,14.5285l-13.9595-9.3074a85.4521,85.4521,0,0,0,5.2844-7.0829q2.5893-3.8577,4.8253-7.8163,2.2321-3.96,4.1765-7.7753,1.9421-3.8167,4.4456-9.23,4.2279-9.3066,7.8333-18.969,7.7964,6.48,15.9567,12.3309,7.1544,5.0659,15.6574,10.2349a95.7218,95.7218,0,0,0,16.8287,8.2092l-7.4356,15.04q-5.64-4.815-11.2308-10.4338-4.96-4.7343-10.62-10.8612a152.289,152.289,0,0,1-10.6229-12.8367c-.0444-.1656-.1888-.213-.4347-.1471a.3375.3375,0,0,0-.27.4677l21.8447,81.5255-8.6076,2.3064-21.8447-81.5255c-.0659-.2459-.2644-.3245-.5906-.2371a.402.402,0,0,0-.3029.3447A163.8983,163.8983,0,0,1,410.9478,624.1883Z"/></svg>