<svg xmlns="http://www.w3.org/2000/svg" xmlns:xlink="http://www.w3.org/1999/xlink" width="4077.889" height="271.585" viewBox="0 0 4077.889 271.585">
  <defs>
    <clipPath id="clip-path">
      <path id="SVGID" d="M123.542,63.639l-7.893,6.9,10.665,3.758.318.348-11.4-4.022,8.431-7.37-.121.389" transform="translate(-115.232 -63.25)" fill="#f3f5ec"/>
    </clipPath>
    <clipPath id="clip-path-2">
      <path id="SVGID-2" data-name="SVGID" d="M124.306,67.3l-7.658,7.4,10.46,3.365.322.343L116.239,74.8l8.181-7.905-.115.41" transform="translate(-116.239 -66.894)" fill="#f3f5ec"/>
    </clipPath>
    <clipPath id="clip-path-3">
      <path id="SVGID-3" data-name="SVGID" d="M123.952,71.132l-5.922,8.282,8.266.678.285.234-8.945-.728,6.411-8.964-.094.5" transform="translate(-117.635 -70.634)" fill="#f3f5ec"/>
    </clipPath>
  </defs>
  <g id="Group_65" data-name="Group 65" transform="translate(3051 -6909)">
    <g id="Group_62" data-name="Group 62" transform="translate(-1103.835 6534.161)">
      <path id="Path_71" data-name="Path 71" d="M203.835,405.839v204.5H339.777V567.345h-85.4V405.839Zm143.962,58.8v88.883h0a99.948,99.948,0,0,0,1.909,19.859,61.182,61.182,0,0,0,5.2,15.261,46.781,46.781,0,0,0,7.634,11.057,42.59,42.59,0,0,0,10.011,7.906,48.442,48.442,0,0,0,13.026,5.1,72.224,72.224,0,0,0,37.442-1.338,56.475,56.475,0,0,0,10.962-4.788,53.147,53.147,0,0,0,5.42-3.593,29.685,29.685,0,0,0,3.966-3.565h0l2.615,11.036h43.568V464.641H439.295v86.268h0a50.733,50.733,0,0,1-.632,8.122,31.375,31.375,0,0,1-1.7,6.3,22.287,22.287,0,0,1-2.418,4.585,17.811,17.811,0,0,1-3,3.335,17.07,17.07,0,0,1-3.593,2.37,21.762,21.762,0,0,1-9.59,2.017,26.241,26.241,0,0,1-5.3-.53,19.286,19.286,0,0,1-4.455-1.5,17,17,0,0,1-3.634-2.37,17.848,17.848,0,0,1-3.015-3.328,21.782,21.782,0,0,1-2.431-4.564,30.284,30.284,0,0,1-1.711-6.289,50.132,50.132,0,0,1-.639-8.143h0V464.641Zm149.933-.414V497.92h20.334V610.336h49.382V497.92H595.91V464.227H567.446V459h0a42.1,42.1,0,0,1,.285-5.073,19.073,19.073,0,0,1,.706-3.437,10.144,10.144,0,0,1,3.688-5.494,11.449,11.449,0,0,1,2.017-1.2,17.768,17.768,0,0,1,2.92-1.032,29.681,29.681,0,0,1,5.08-.842c4-.414,10-.353,15.22-.36h0V406.131h-15.4a213.367,213.367,0,0,0-22.392,1.073,65.994,65.994,0,0,0-13,2.6,43.461,43.461,0,0,0-7.783,3.219,32.954,32.954,0,0,0-5.685,3.871,31.258,31.258,0,0,0-4.5,4.727,36.218,36.218,0,0,0-3.735,6,49.7,49.7,0,0,0-3.117,8.035,75.729,75.729,0,0,0-2.418,11.451,141.069,141.069,0,0,0-1.27,17.115H497.73Zm103.817.285v33.693H621.3v63.033h0c0,5.467.258,10.934.713,15.3a67.254,67.254,0,0,0,1.813,10.344,40.705,40.705,0,0,0,2.384,6.758,28.061,28.061,0,0,0,2.859,4.876,23.735,23.735,0,0,0,3.416,3.749,24.44,24.44,0,0,0,4.279,3.009,30.992,30.992,0,0,0,5.752,2.452,46.871,46.871,0,0,0,8.816,1.861,116.1,116.1,0,0,0,13.536.747H700.6V576.344h-6.975c-3.831,0-7.674-.1-10.242-.292a26.837,26.837,0,0,1-4.87-.693c-2.194-.611-3.477-1.026-5.128-2.8a8.656,8.656,0,0,1-1.732-3.423,18.6,18.6,0,0,1-.7-4.252c-.19-2.33-.272-5.9-.272-9.454h0V498.206h27.594V464.512H670.68V418.037H621.3v46.475Zm107.492-58.673v204.5h49.382V527.253h0a39.482,39.482,0,0,1,1.236-9.943,29.335,29.335,0,0,1,3.5-8.164,23.5,23.5,0,0,1,5.223-5.888,21.932,21.932,0,0,1,13.862-4.761,28.612,28.612,0,0,1,4.286.312c3.83.713,7.247,1.718,10.67,6.248a18.373,18.373,0,0,1,1.759,3.063,26.486,26.486,0,0,1,1.494,4.218,41.582,41.582,0,0,1,1.114,6.119,81.06,81.06,0,0,1,.428,8.5h0v83.374h49.382V519.7h0A100.183,100.183,0,0,0,849.5,500a59.877,59.877,0,0,0-5.067-14.948,44.974,44.974,0,0,0-7.416-10.724,41.4,41.4,0,0,0-9.78-7.675,48.176,48.176,0,0,0-12.918-4.992,77.964,77.964,0,0,0-26.426-1.175,56.1,56.1,0,0,0-8.585,1.881,32.526,32.526,0,0,0-8.462,3.817,72,72,0,0,0-10.683,8.5c-.584.387-1.161.774-1.745,1.161h0v-70ZM915.851,511.422a45.466,45.466,0,0,1,.971-5.658,24.405,24.405,0,0,1,1.379-4.088,16.251,16.251,0,0,1,5.637-6.935,19.129,19.129,0,0,1,5.916-2.588,30.428,30.428,0,0,1,4.258-.781,43.759,43.759,0,0,1,12.014.292,24.418,24.418,0,0,1,5.352,1.535,17.18,17.18,0,0,1,3.858,2.194c4.211,3.43,4.978,6.8,4.19,10.629a8.23,8.23,0,0,1-2.764,4.061,19.369,19.369,0,0,1-3.348,2.173c-1.535.822-3.586,1.82-10.031,3.247s-17.291,3.287-25.733,5.005a186.5,186.5,0,0,0-19.1,4.761,76.43,76.43,0,0,0-10.534,4.115,60.858,60.858,0,0,0-6.785,3.769,47.2,47.2,0,0,0-5.039,3.742c-12.028,10.9-13.332,20.857-13.678,31.751a41.941,41.941,0,0,0,2.268,13.814,43.48,43.48,0,0,0,6.955,12.762,48.909,48.909,0,0,0,11.654,10.615c9.148,6.16,21.855,9.447,33.591,9.57a73.54,73.54,0,0,0,16.612-1.616,81.879,81.879,0,0,0,15.879-5.06,74.083,74.083,0,0,0,15.865-9.3h0l3.491,11.043h43.854a63.464,63.464,0,0,1-2.54-6.534,21.609,21.609,0,0,1-.971-4.727c-.17-1.623-.258-3.606-.258-5.589h0V534.079h0c0-11-.258-22.039-.944-29.258s-1.65-10.6-2.7-13.563a42.845,42.845,0,0,0-9.257-15.417,46.46,46.46,0,0,0-7.933-6.866,54.456,54.456,0,0,0-11.233-5.787A79.135,79.135,0,0,0,960.805,459a133.392,133.392,0,0,0-20.823-1.6,112.529,112.529,0,0,0-20,1.745,80.607,80.607,0,0,0-16.314,4.775,62.105,62.105,0,0,0-12.449,6.88,50.633,50.633,0,0,0-9.108,8.354,46.069,46.069,0,0,0-6.269,9.556,51.119,51.119,0,0,0-5.012,22.718h45.022Zm43.793,52.608a22.67,22.67,0,0,1-3.926,6.73,26.193,26.193,0,0,1-6.452,5.488,32.242,32.242,0,0,1-8.646,3.613,37.158,37.158,0,0,1-16.083.672,23.015,23.015,0,0,1-5.073-1.623,17.94,17.94,0,0,1-3.939-2.431,12.259,12.259,0,0,1-4.836-9.671,20.051,20.051,0,0,1,.251-3.532,10.267,10.267,0,0,1,3.172-6.147,14.987,14.987,0,0,1,2.228-1.752,33.465,33.465,0,0,1,3.79-2.071c1.691-.815,3.9-1.793,10.785-3.912s18.426-5.365,30.026-8.374h0v15.689h0a21.259,21.259,0,0,1-1.3,7.322Zm65.152,46.305h49.382V524.354h0a47.324,47.324,0,0,1,.815-8.945,27.83,27.83,0,0,1,2.194-6.785,20.335,20.335,0,0,1,3.158-4.808,17.393,17.393,0,0,1,4.034-3.348,22.151,22.151,0,0,1,11.118-2.839,24.143,24.143,0,0,1,5.4.516,18.3,18.3,0,0,1,4.326,1.474,16.213,16.213,0,0,1,3.511,2.316,17.073,17.073,0,0,1,2.9,3.253,21.7,21.7,0,0,1,2.357,4.51,31.081,31.081,0,0,1,1.671,6.316,53.2,53.2,0,0,1,.631,8.34h0v85.982h49.382V516.217h0a78.566,78.566,0,0,0-1.929-17.536,55.741,55.741,0,0,0-5.318-14.188,46.6,46.6,0,0,0-7.946-10.684,44.674,44.674,0,0,0-10.31-7.695,50.762,50.762,0,0,0-12.884-4.856c-11.96-2.69-25.638-2.466-38.2,2.642A54.544,54.544,0,0,0,1079,469.28a60.04,60.04,0,0,0-5.107,3.946,30.7,30.7,0,0,0-3.491,3.484h0v-12.2H1024.8V610.336Zm147.813-50.985a43.822,43.822,0,0,0,8.163,30.929,47.228,47.228,0,0,0,7,7.5,58.1,58.1,0,0,0,9.658,6.751,74.272,74.272,0,0,0,12.761,5.63,97.5,97.5,0,0,0,16.056,3.864,120.537,120.537,0,0,0,19.1,1.385,132.332,132.332,0,0,0,20.49-1.684,87.057,87.057,0,0,0,17.061-4.584,64.647,64.647,0,0,0,12.863-6.6,50.445,50.445,0,0,0,9.345-8.014,43.615,43.615,0,0,0,6.425-9.182c5.78-11.376,6.832-24.076,2.812-37.4a35.8,35.8,0,0,0-10.71-15.974,43.006,43.006,0,0,0-4.734-3.572,53.959,53.959,0,0,0-6.282-3.525,70.058,70.058,0,0,0-9.637-3.79,159.2,159.2,0,0,0-17.332-4.258c-7.7-1.528-17.685-3.172-23.635-4.449s-7.865-2.2-9.3-2.975a17.985,17.985,0,0,1-3.165-2.065c-3.246-2.988-3.328-5.651-2.465-8.693a9.957,9.957,0,0,1,3.79-4.754,16.149,16.149,0,0,1,3.572-1.895,25,25,0,0,1,4.849-1.318,33.339,33.339,0,0,1,6.1-.462,32.086,32.086,0,0,1,6.642.767,18,18,0,0,1,5.25,2.092,15.306,15.306,0,0,1,3.83,3.219,16.008,16.008,0,0,1,2.71,4.523,37.205,37.205,0,0,1,1.739,7.41h45.314v-4.36h0a52.51,52.51,0,0,0-1.209-11.369,41.236,41.236,0,0,0-3.5-9.8,39.068,39.068,0,0,0-5.685-8.293,43.06,43.06,0,0,0-8.15-7.063,56.009,56.009,0,0,0-11.315-5.786,79.541,79.541,0,0,0-15.559-4.1,125.06,125.06,0,0,0-19.913-1.521,120.885,120.885,0,0,0-20.076,1.671,86.38,86.38,0,0,0-16.68,4.584,64.938,64.938,0,0,0-12.734,6.629,50.588,50.588,0,0,0-9.264,7.994,43.734,43.734,0,0,0-6.309,9.033,44.835,44.835,0,0,0-2.622,35.215,32.827,32.827,0,0,0,11.152,15,42.405,42.405,0,0,0,5.263,3.5,67.4,67.4,0,0,0,7.464,3.586,77.717,77.717,0,0,0,14.337,4.367c7.491,1.671,18.711,3.6,26.168,5.114a92.2,92.2,0,0,1,13.7,3.572,24.558,24.558,0,0,1,5.114,2.452c5.433,3.661,5.678,7.036,5.189,10.928a10.176,10.176,0,0,1-2.961,5.474,13.42,13.42,0,0,1-1.963,1.6,17.406,17.406,0,0,1-2.676,1.46,23.118,23.118,0,0,1-3.552,1.243,40.146,40.146,0,0,1-10.153,1.2,41.209,41.209,0,0,1-8.15-.794,26.3,26.3,0,0,1-6.343-2.133,20.361,20.361,0,0,1-4.659-3.118,18.445,18.445,0,0,1-3.376-4,23.594,23.594,0,0,1-3.321-11.166H1172.61Zm205.121-47.929a44.142,44.142,0,0,1,.978-5.658,23.237,23.237,0,0,1,1.372-4.088,16.241,16.241,0,0,1,5.63-6.935,19.269,19.269,0,0,1,5.916-2.588,30.353,30.353,0,0,1,4.265-.781,43.761,43.761,0,0,1,12.015.292,24.417,24.417,0,0,1,5.352,1.535,17.486,17.486,0,0,1,3.858,2.194c4.211,3.43,4.978,6.8,4.19,10.629a8.248,8.248,0,0,1-2.751,4.061,19.428,19.428,0,0,1-3.335,2.173c-1.521.829-3.552,1.827-9.97,3.267s-17.2,3.321-25.645,5.046a192.011,192.011,0,0,0-19.193,4.795,77.043,77.043,0,0,0-10.609,4.143,61.665,61.665,0,0,0-6.805,3.776,45.955,45.955,0,0,0-5.046,3.742c-12,10.867-13.318,20.776-13.665,31.622a41.939,41.939,0,0,0,2.269,13.814,43.314,43.314,0,0,0,6.955,12.762,48.915,48.915,0,0,0,11.654,10.615c9.23,6.2,21.889,9.468,33.646,9.57a73.412,73.412,0,0,0,16.931-1.739,85.3,85.3,0,0,0,16.137-5.223,71.839,71.839,0,0,0,15.234-9.013h0l3.484,11.043h43.86a65.835,65.835,0,0,1-2.547-6.411,18.852,18.852,0,0,1-.978-4.564c-.17-1.643-.245-3.763-.245-5.875h0V534.079h0c0-11.227-.238-22.494-.924-29.768s-1.664-10.554-2.723-13.427a41.8,41.8,0,0,0-9.3-15.084,47.8,47.8,0,0,0-8.15-6.88,56.584,56.584,0,0,0-11.505-5.814,81.988,81.988,0,0,0-15.967-4.157,129.766,129.766,0,0,0-20.388-1.555,113.768,113.768,0,0,0-19.92,1.739,80.008,80.008,0,0,0-16.3,4.74,61.57,61.57,0,0,0-12.415,6.846,50.537,50.537,0,0,0-9.087,8.313,45.959,45.959,0,0,0-6.269,9.549,51.389,51.389,0,0,0-5.033,22.84h45.022Zm43.664,52.608a22.674,22.674,0,0,1-3.925,6.73,26.076,26.076,0,0,1-6.452,5.488,32.242,32.242,0,0,1-8.646,3.613,37.158,37.158,0,0,1-16.083.672,23.011,23.011,0,0,1-5.073-1.623,18.1,18.1,0,0,1-3.939-2.431,12.232,12.232,0,0,1-4.836-9.6,22.441,22.441,0,0,1,.258-3.525,10.477,10.477,0,0,1,3.267-6.262,15.94,15.94,0,0,1,2.309-1.807,35.508,35.508,0,0,1,3.926-2.133,72.035,72.035,0,0,1,10.887-3.939c6.826-2.085,18.195-5.257,29.6-8.19h0v15.689h0a21.1,21.1,0,0,1-1.3,7.322Z" transform="translate(0 0)" fill="#f3f5ec" fill-rule="evenodd"/>
    </g>
    <g id="Group_63" data-name="Group 63" transform="translate(216.496 6549.311)">
      <path id="Path_72" data-name="Path 72" d="M251.424,596.132H208.5V390.689h42.92v83.55l78.4-83.55h55.51L301.5,474.812l88.7,121.321H334.974L271.453,506l-20.029,20.6v69.531Z" transform="translate(0 0)" fill="#f3f4ec" fill-rule="evenodd"/>
      <path id="Path_73" data-name="Path 73" d="M399.6,561.288H359.541V468.865c0-11.158-.572-30.042-26.038-30.042-17.74,0-31.473,12.017-31.473,35.192v87.272H261.971V409.066h38.343v22.319h.572c5.435-9.158,16.88-26.326,45.782-26.326,29.757,0,52.933,17.456,52.933,50.933v105.3Z" transform="translate(129.643 34.844)" fill="#f3f4ec" fill-rule="evenodd"/>
      <path id="Path_74" data-name="Path 74" d="M383.232,405.059c-40.915,0-77.827,25.179-77.827,80.118s36.912,80.115,77.827,80.115,77.83-25.179,77.83-80.115S424.151,405.059,383.232,405.059Zm0,126.472c-30.9,0-36.624-26.9-36.624-46.354s5.723-46.354,36.624-46.354,36.628,26.894,36.628,46.354S414.137,531.531,383.232,531.531Z" transform="translate(234.959 34.844)" fill="#f3f4ec" fill-rule="evenodd"/>
      <path id="Path_75" data-name="Path 75" d="M394.412,596.132H354.354V390.689h40.059V596.132Z" transform="translate(353.646 0)" fill="#f3f4ec" fill-rule="evenodd"/>
      <path id="Path_76" data-name="Path 76" d="M412.614,596.132H372.555V390.689h40.059V596.132Z" transform="translate(397.779 0)" fill="#f3f4ec" fill-rule="evenodd"/>
    </g>
    <g id="Group_52" data-name="Group 52" transform="translate(-3051 6954)">
      <path id="Path_57" data-name="Path 57" d="M142.806,398.39h48.838a29.469,29.469,0,0,1,1.4-8.324c3-8.926,13.107-13.67,22.906-13.953,11.106-.324,21.813,5.08,21.315,16.6.112,8.657-6.3,12.463-16.529,13.506q-11.556,0-23.123-.012v33.952h17.314a24.974,24.974,0,0,1,10.255,3.528c16.578,10.22,8.675,31.857-8.2,34.111-10.46,1.4-22.236-2.186-27.014-13.271-2.461-5.713-3.22-12.5-3.405-18.189H136c0,47.027,26.693,73.25,76.239,73.132,30.161-.411,60.295-10.806,72.184-33.228.19-.357.374-.715.556-1.073v30.092h51.456v-108.8l27.27,108.8h44.007l27.981-108.74-.45,108.74h50.683V340.206h-75.5L386.028,441.927,360.739,340.206h-75.76v35.573c-8.81-29.354-40.5-38.549-67.972-38.889-49.544-.108-71.849,21.216-74.2,61.5ZM284.979,441.03a59.05,59.05,0,0,0-17.469-18.15c-.747-.591-.819-.9.01-1.4,5.242-3.153,9.79-6.48,13.181-11a30.314,30.314,0,0,0,4.278-7.994V441.03Z" transform="translate(-136 -336.89)" fill="#f3f4ec" fill-rule="evenodd"/>
    </g>
    <path id="Path_58" data-name="Path 58" d="M175.968,246.161l-8.928,37.5h30.585c-2.96,20.126-52.539,28.8-44.975-19.927,5.318-34.077,47.976-52.447,57.409-26.069l52.7-13.2c-7.592-32.8-36.621-49.021-68.524-49.021-43.906-.016-93.273,30.689-99.754,91.129-5.442,50.7,32.559,78.593,76.676,77.863,31.374-.544,56.183-11.96,68.273-20.532l18.359-77.741Zm95.86-17.6L245.324,340.9h54.719l26.492-112.333Zm79.673-64.14L309.87,340.9h54.737l41.6-176.473ZM338.047,180.6H283.238l-9.425,41.08,58.331-14.522Zm447.971,40.494c-22.238,0-40.943,10.1-53.828,25.746,2.045-8.235,4.392-17.7,4.416-17.7H713.887l11.538-48.518H670.757l-11.594,48.585-12.372.012,11.64-48.6h-54.69l-11.433,48.438-17.5.1-8.217,29.712c-6.061-25.825-30.371-37.976-53.264-37.976-32.467,0-57.279,21.347-67.61,50.131l25.12-106.6H416.119L374.532,340.9h54.7l11.892-50.45c-2.1,20.081,5.526,56.322,54.781,56.322,24.718,0,56.373-16.066,63.926-38.352l-42.742-7.474c-4.8,6.208-11.99,9.9-18.967,9.9-11.737,0-15.07-10.023-12.694-19.035l79.5-.1c.746-2.71,2.465-5.661,3.073-15.443a69.467,69.467,0,0,0-.061-8.447h15.272l-17.339,73.164H620.54l17.35-73.164h12.127l-17.178,73.164h54.708l17.378-73.164H719.74c-.048.132-.076.217-.076.217a86.273,86.273,0,0,0-5.555,20.737l-.006.028c-2.755,19.626,3.792,58.2,54.589,58.2,24.706,0,56.368-16.072,63.933-38.356L789.86,301.16c-4.78,6.22-12,9.918-18.957,9.918-11.747,0-15.091-10.02-12.7-19.049l-.028-.028,79.515.028c.658-2.713,2.377-5.762,3-15.546,2.605-37.927-27.089-55.391-54.669-55.391M521.724,269.459l-30.243-.194c4.608-15.689,32.636-19.242,30.243.194m272.768.173-30.254-.06c4.626-15.677,32.628-19.363,30.254.06" transform="translate(-2740.958 6789.575)" fill="#f3f4ec"/>
    <g id="Group_53" data-name="Group 53" transform="translate(-1846 6928)">
      <path id="Path_59" data-name="Path 59" d="M348.384,505.229c0,52.268-24.07,72.211-72.211,72.211-48.829,0-70.149-26.821-70.149-68.084V483.221h52.954v21.32c0,14.442,0,28.2,15.819,28.2,15.13,0,14.445-18.569,14.445-26.821V384.185h59.143V505.229Z" transform="translate(-206.024 -384.185)" fill="#f3f4ec" fill-rule="evenodd"/>
      <path id="Path_60" data-name="Path 60" d="M299.577,455.9c2.062-14.442,10.314-22.7,24.07-22.7,12.379,0,21.32,10.317,21.32,22.7ZM391.045,483.4c0-53.642-22.008-83.906-71.526-83.906-39.889,0-66.022,32.326-66.022,72.215,0,46.079,30.26,72.211,70.149,72.211,28.883,0,55.019-13.753,64.648-43.325h-44.7c-4.128,6.186-12.383,9.625-19.946,9.625-15.13,0-23.382-11-24.759-26.821Z" transform="translate(-104.26 -351.358)" fill="#f3f4ec" fill-rule="evenodd"/>
      <path id="Path_61" data-name="Path 61" d="M344.426,455.9c2.062-14.442,10.314-22.7,24.07-22.7,12.38,0,21.32,10.317,21.32,22.7ZM435.895,483.4c0-53.642-22.005-83.906-71.526-83.906-39.889,0-66.022,32.326-66.022,72.215,0,46.079,30.26,72.211,70.149,72.211,28.2,0,55.019-13.753,64.648-43.325h-44.7c-4.124,6.186-12.376,9.625-19.943,9.625-15.13,0-23.382-11-24.759-26.821Z" transform="translate(-8.122 -351.358)" fill="#f3f4ec" fill-rule="evenodd"/>
      <path id="Path_62" data-name="Path 62" d="M389.715,471.714c0-16.507,3.436-33.7,20.631-33.7s21.32,17.192,21.32,33.7c0,15.818-4.127,33.7-21.32,33.7s-20.631-17.881-20.631-33.7ZM343.633,584.5h47.455V525.356h.689c6.875,11.694,19.943,18.569,34.388,18.569,41.951,0,52.954-39.2,52.954-71.523,0-34.388-16.5-72.9-52.268-72.9-23.382,0-30.949,9.629-37.135,18.569h0v-15.13H343.633V584.5Z" transform="translate(88.952 -351.358)" fill="#f3f4ec" fill-rule="evenodd"/>
    </g>
    <g id="Group_61" data-name="Group 61" transform="translate(-1338.956 6881.051)">
      <g id="Group_60" data-name="Group 60" transform="translate(116.14 157.394)">
        <path id="Path_63" data-name="Path 63" d="M135.118,85.713l1.76-27.558,14.491,23.117" transform="translate(-49.902 -58.155)" fill="#f3f5ec"/>
        <path id="Path_64" data-name="Path 64" d="M123.667,63.249l-8.435,7.374,11.4,4.022" transform="translate(-115.232 -41.421)" fill="#f3f5ec"/>
        <g id="Group_55" data-name="Group 55" transform="translate(0 21.833)">
          <g id="Group_54" data-name="Group 54" clip-path="url(#clip-path)">
            <path id="Path_65" data-name="Path 65" d="M123.542,63.639l-7.893,6.9,10.665,3.758.318.348-11.4-4.022,8.431-7.37-.121.389" transform="translate(-115.232 -63.25)" fill="#f3f5ec"/>
          </g>
        </g>
        <path id="Path_66" data-name="Path 66" d="M124.421,66.894,116.239,74.8l11.19,3.612" transform="translate(-111.924 -29.447)" fill="#f3f5ec"/>
        <g id="Group_57" data-name="Group 57" transform="translate(4.315 37.447)">
          <g id="Group_56" data-name="Group 56" clip-path="url(#clip-path-2)">
            <path id="Path_67" data-name="Path 67" d="M124.306,67.3l-7.658,7.4,10.46,3.365.322.343L116.239,74.8l8.181-7.905-.115.41" transform="translate(-116.239 -66.894)" fill="#f3f5ec"/>
          </g>
        </g>
        <path id="Path_68" data-name="Path 68" d="M124.055,70.631l-6.419,8.977,8.945.728" transform="translate(-107.338 -17.168)" fill="#f3f5ec"/>
        <g id="Group_59" data-name="Group 59" transform="translate(10.297 53.475)">
          <g id="Group_58" data-name="Group 58" clip-path="url(#clip-path-3)">
            <path id="Path_69" data-name="Path 69" d="M123.952,71.132l-5.922,8.282,8.266.678.285.234-8.945-.728,6.411-8.964-.094.5" transform="translate(-117.635 -70.634)" fill="#f3f5ec"/>
          </g>
        </g>
      </g>
      <path id="Path_70" data-name="Path 70" d="M373.6,165.419l11.729-6.831-2.8-1.92-32.042,8.6-13.846-52.633,9.158-2.447,11.592,44.366,15.3-4.32,11.031-9.325L370.274,134.5,380.2,123.77l-14.515-4.277,9.1-11.708-14.656-1.191,7.315-12.83-15.457-.6,5.121-13.542L342.62,80.976l3.891-14.356-14.9,3.883,1.294-15.612-13.79,5.991-.506-15.329-12.535,7.109-2.554-14.75-11.853,8.926L287.5,32.256,276.609,42.712l-5.952-13.46L261.82,40.561l-7.868-12.612L246.5,40.364,237.128,28.9,231.2,42,220.74,31.249,216.164,45.18l-11.806-9.346-2.387,14.9-12.9-8.082L188.052,57.15l-14.253-6.1,1.029,15.029-14.39-4.268,3.253,14.026-15.342-1.311L152.8,88.274l-15.607-.467,6.659,13.876-14.913,1.483,8.159,12.608-14.913,3.321,10.053,11.468-14.742,4.581,11.275,10.195-13.375,6.535,12.089,9.342-12.526,7.962,8.082,4.277-.849-3.471,14.065-3.6,22.237,35.41,2.1-42.164,14.343-3.608,13.627,52.517-9.269,2.494-10.156-39.781-3.214,43.372-8.845,2.383-21.958-35.294,9.518,38.585-2.593.724-7.444,13.8,15.192.767L144.8,249.511l14.9-1.744-4.037,14.086,15.17-3.775L169,273l14.189-5.7.086,15.042,12.278-7.684,2,15.187,12.11-9.634,4.457,14.75,10.469-10.915,5.97,14.026,9.094-11.279,8.009,12.74,7.457-12.286,9.921,11.472,5.378-13.229,11.009,10.461,4.71-13.957,11.811,8.8,2.815-14.052,12.612,7.911.317-15.423,13.717,5.678-1.037-14.347,14.806,4.273-3.248-14.857,14.39,3.12-4.59-14.167,14.909.463L356.274,225.8l15.736.056-8.288-14.009,14.2-3.193-8.948-11.9,14.065-4.427L372.16,181.018l13.122-6.124ZM228.5,197.885l-5.931-9.372-21.71,5.884-.767,11.091-9.081,2.408,4.118-57.317,11.613-3.3,31.686,47.893Zm57.775-15.526-9.149,2.43-11.87-44.182-23.085,6.171,11.369,44.384-9.055,2.426-11.322-44.362-16.657,4.585-2.117-8.4,73.893-19.841,2.378,8.005-15.984,4.59Zm19.944-5.318-13.559-52.624,38.787-10.495,2.241,8.288-30.19,8.052,3.5,13.473,25.922-7.324,2.108,8-25.785,7.178,3.767,14.875,30.173-8.044,2.031,8.224Z" transform="translate(0 0)" fill="#f3f5ec"/>
    </g>
  </g>
</svg>
