<svg xmlns="http://www.w3.org/2000/svg" width="1422.45" height="356.43" viewBox="0 0 1422.45 356.43"><path d="M198.925-196.745a295.364,295.364,0,0,1,41.693,10.9,101.86,101.86,0,0,1,32.427,17.985A78.245,78.245,0,0,1,294.3-139.247q7.63,17.167,7.63,43.327,0,28.34-12.535,47.96a100.68,100.68,0,0,1-32.428,31.882A138.364,138.364,0,0,1,212.55,1.362a234.335,234.335,0,0,1-48.5,5.178q-31.065,0-57.5-7.9T60.222-23.435a122.481,122.481,0,0,1-32.7-34.335A115.847,115.847,0,0,1,10.9-103L69.215-115.54a70.422,70.422,0,0,0,11.717,29.7A79.31,79.31,0,0,0,103-64.583,98.122,98.122,0,0,0,131.89-52.048,125.8,125.8,0,0,0,163.5-47.96,123.2,123.2,0,0,0,193.475-51.5a92.979,92.979,0,0,0,24.8-9.81A54.561,54.561,0,0,0,234.9-75.755,29.737,29.737,0,0,0,240.89-93.74q0-12.535-5.45-20.165a37.954,37.954,0,0,0-14.17-11.99,86.709,86.709,0,0,0-19.347-6.813q-10.627-2.452-20.437-4.632l-65.4-13.625a232.012,232.012,0,0,1-37.06-11.445,111.212,111.212,0,0,1-30.792-18.53,84.666,84.666,0,0,1-21.255-27.795q-7.9-16.35-7.9-38.15,0-27.795,11.445-47.415a94.142,94.142,0,0,1,30.248-31.882A135.474,135.474,0,0,1,103-344.168a201.443,201.443,0,0,1,47.96-5.723A289.3,289.3,0,0,1,201.65-345.8a121.638,121.638,0,0,1,40.875,14.715,96.2,96.2,0,0,1,30.52,28.885q12.535,18.257,19.62,47.142L234.35-241.435q-7.085-28.34-26.433-41.147T151.51-295.39q-33.245,0-52.592,12.262T79.57-249.61A26.4,26.4,0,0,0,85.838-231.9a52.221,52.221,0,0,0,15.533,12.263,93.194,93.194,0,0,0,19.347,7.63q10.083,2.725,18.257,4.36ZM493.77-188.57H425.645V-71.395q0,17.44,5.723,20.982T449.08-46.87a54.7,54.7,0,0,0,10.082-1.09,82.353,82.353,0,0,0,10.627-2.725q6-1.635,11.99-3.815l5.45,51.775q-12.535,3.815-22.89,6.54A92.254,92.254,0,0,1,440.9,6.54q-36.515,0-57.5-20.983T362.425-71.395V-188.57H305.2v-49.05h5.45q19.075,0,29.975-3.815t16.077-11.99q5.178-8.175,6.268-21.255t1.09-31.61v-4.9H425.1a121.046,121.046,0,0,1,.273,21.527q-.818,11.173-2.453,21.255a171.1,171.1,0,0,1-3.815,17.985,93.825,93.825,0,0,1-4.36,12.808H493.77ZM615.85-46.87a81.654,81.654,0,0,0,33.79-7.085q15.805-7.085,23.98-24.525l56.135,17.44A91.813,91.813,0,0,1,711.5-32.155,119.175,119.175,0,0,1,685.065-10.9a120.948,120.948,0,0,1-31.61,13.08A136.862,136.862,0,0,1,619.12,6.54Q590.78,6.54,567.345-3A112.885,112.885,0,0,1,527.56-29.7a113.455,113.455,0,0,1-24.8-41.147q-8.447-23.98-7.9-53.41a130.52,130.52,0,0,1,9.81-48.233,114.645,114.645,0,0,1,25.343-37.878A113.524,113.524,0,0,1,567.89-234.9q21.8-8.72,48.505-8.72,25.07,0,46.052,8.72a111.636,111.636,0,0,1,36.515,24.253,111.635,111.635,0,0,1,24.252,36.515q8.72,20.983,8.72,46.053V-95.92H554.265Q565.165-46.87,615.85-46.87Zm-2.18-144.97q-27.795,0-41.148,16.077T555.9-135.16H670.9q-3.27-24.525-17.168-40.6T613.67-191.84ZM815.32-343.35H752.1V0h63.22Zm8.175,105.73h65.4L952.66-62.13h2.18l62.675-175.49h65.4L989.175,0h-71.94Zm273.045-95.375h64.31v66.49h-64.31ZM1160.3,0h-63.22V-237.62h63.22ZM1310.18-243.615a130.816,130.816,0,0,1,48.778,8.993,113.893,113.893,0,0,1,38.967,25.342,119.419,119.419,0,0,1,25.888,39.512q9.537,23.162,9.537,51.5,0,27.8-9.537,50.958A119.419,119.419,0,0,1,1397.925-27.8a113.894,113.894,0,0,1-38.967,25.343A130.816,130.816,0,0,1,1310.18,6.54q-27.795,0-50.412-9.537A116.578,116.578,0,0,1,1220.8-29.43a119.839,119.839,0,0,1-25.342-39.512,132.314,132.314,0,0,1-8.993-49.323,134.439,134.439,0,0,1,8.993-49.6,119.187,119.187,0,0,1,25.342-39.785,116.578,116.578,0,0,1,38.968-26.433Q1282.385-243.615,1310.18-243.615Zm0,196.2q28.885,0,45.78-19.075t16.9-51.775q0-31.065-15.805-51.23t-46.87-20.165q-32.155,0-47.687,19.347t-15.532,52.048q0,32.155,15.805,51.5T1310.18-47.415Z" transform="translate(-10.9 349.89)" fill="#1c2be3" style="mix-blend-mode:multiply;isolation:isolate"/></svg>