<svg xmlns="http://www.w3.org/2000/svg" width="88.317" height="585.28" viewBox="0 0 88.317 585.28">
  <g id="Group_83" data-name="Group 83" transform="translate(2382.761 -4547.484)">
    <path id="Path_50" data-name="Path 50" d="M-2979.064,4714.787v-9h-.668c-2,4.333-8,10.334-15.663,10.334-11.33,0-17.662-4.667-17.662-19.664V4547.483h12v144.638c0,10.666,3,14,10,14,5.333,0,12-6,12-18.328V4547.483h12v167.3Z" transform="translate(672.621 0)" fill="#fff"/>
    <path id="Path_51" data-name="Path 51" d="M-2954.692,4822.3h-19.331v-12.331h-.665c-4.667,7.663-13.331,14.329-24,14.329-17,0-24.663-12.663-24.663-27.327v-156.3h20.662v148.3c0,9.666,3.666,16.666,13,16.666,9.665,0,14.331-9.332,14.331-16.666v-148.3h20.663Z" transform="translate(660.248 112.066)" fill="#fff"/>
    <path id="Path_52" data-name="Path 52" d="M-2943.956,4903.64h-29.328v-14h-.665a31.013,31.013,0,0,1-12,11.663,32.267,32.267,0,0,1-17,4.333c-15.665,0-29.328-8.333-29.328-32.993V4736.338h31.328v130.311c0,8.664,2.333,15,12,15,7.665,0,13.664-4.663,13.664-17.661V4736.338h31.328Z" transform="translate(649.512 227.125)" fill="#fff"/>
  </g>
</svg>
