<svg xmlns="http://www.w3.org/2000/svg" width="390.228" height="791.863" viewBox="0 0 390.228 791.863">
  <g id="Group_81" data-name="Group 81" transform="translate(2989.926 -4547.484)">
    <path id="Path_53" data-name="Path 53" d="M-3052.722,4547.483h20l-27.661,129.643c-2.665,13-4.666,26.329-6.333,37.661h-20.663l4.332-24.662-.665-.668c-16,20.663-36.994,30.328-58.656,30.328-54.657,0-48.659-48.323-44.659-67.651l22.329-104.65h20l-23,107.982c-6.333,28.993,7,45.991,34.326,45.991,32.993,0,53.656-27.663,59.989-57.659Z" transform="translate(433.028 0)" fill="#fff"/>
    <path id="Path_54" data-name="Path 54" d="M-3166.357,4640.668l-23,107.646c-3.333,16.332-4.333,36.993,27.66,36.993,15.665,0,31.661-5.331,43.326-18.661,9.333-10,12-23,13.663-31.33l20.331-94.647h32.328l-29,135.975c-.665,3.333-4,22-5.665,31.329h-32.661l5.332-28.664c-8.332,11.667-23.663,30.329-59.656,30.329-41.325,0-55.656-23.662-48.656-56.656l24-112.313Z" transform="translate(384.915 112.066)" fill="#fff"/>
    <path id="Path_55" data-name="Path 55" d="M-3180.933,4736.338l-21.331,100.313c-3,14.665-7.665,36.993,18.664,36.993,31.66,0,36.66-23.662,42.66-52.323l18-84.982h50.658l-23.33,110.979c-7.333,36.325-7.666,40.66-8.665,44.993-.666,4.666-1,7.663-1.333,12.331H-3153.6l3-22.328c-6.333,7.333-23.33,26.66-55.323,26.66-22.663,0-38.993-10.33-45.658-22.66-8.333-13.665-3.333-36.994-1.333-45.328l21.995-104.646Z" transform="translate(339.765 227.125)" fill="#fff"/>
    <path id="Path_56" data-name="Path 56" d="M-3200.277,4829.673l-21,97.649c-2,9.331-6.666,32.661,18.33,32.661,26.328,0,31.328-24,33.325-33.328l20.664-96.983h62.656l-29.661,138.31c-2.335,14.329-2.667,16-5,28.994h-61.654l4.331-25.995c-23,26.993-44.324,29-58.989,29-57.989,0-52.324-43.994-45.324-75.986l20-94.318Z" transform="translate(296.938 339.37)" fill="#fff"/>
  </g>
</svg>
