<svg xmlns="http://www.w3.org/2000/svg" width="218.958" height="793.492" viewBox="0 0 218.958 793.492">
  <g id="Group_79" data-name="Group 79" transform="translate(3494.444 -4757.833)">
    <path id="Path_43" data-name="Path 43" d="M-3294.469,4772.293c0,12.663.667,24.662,1.333,37.991H-3323.8c-.665-8.331-1.333-18-1.333-29.661h-.667c-19,25.661-42.991,35.993-72.985,35.993-46.993,0-80.986-26.329-80.986-78.652v-94.982h32.66V4736.3c0,37.326,22.331,57.656,53.656,57.656,31,0,66.322-19,66.322-71.987v-78.983h32.661Z" transform="translate(17.649 114.85)" fill="#fff"/>
    <path id="Path_44" data-name="Path 44" d="M-3288.282,4863.423c0,14.666,1.333,28.994,1.333,39.659h-48.656c-.668-9.33-1.333-18.328-1.333-27.664h-.668c-17,23.664-39.993,34-70.654,34-29.994,0-76.652-16.331-76.652-70.653V4735.778h50.656v88.652c0,41.324,19,50.988,43.327,50.988,26.328,0,51.991-18.328,51.991-58.988v-80.652h50.656Z" transform="translate(11.463 226.451)" fill="#fff"/>
    <path id="Path_45" data-name="Path 45" d="M-3283.9,4982.313c-.348-7-.74-14.928-.74-22.761V4828.576h-57.322v83.983c0,41.079-26.212,55.657-48.658,55.657-19.777,0-39.994-5.664-39.994-47.66v-91.981h-57.321V4934.89c0,58.525,52.319,73.987,79.984,73.987,29.544,0,51.42-9.174,68.157-28.741.229,6.122.66,12.161,1.109,18.443l.284,3.965h55.092v-3.333C-3283.311,4994.218-3283.6,4988.436-3283.9,4982.313Z" transform="translate(7.824 338.051)" fill="#fff"/>
    <path id="Path_46" data-name="Path 46" d="M-3276.819,5057.375c0,10.662.334,23,1.333,34.326h-61.986c-.668-10-1.335-19.994-1.335-30h-.666c-16.663,22.332-41.659,36.33-70.986,36.33-60.988,0-83.985-34.662-83.985-78.321V4924.4h63.987v85.65c0,26.663,11.666,45.328,40.661,45.328,26.329,0,48.991-20.331,48.991-57.324V4924.4h63.987Z" transform="translate(0 453.291)" fill="#fff"/>
  </g>
</svg>
