<svg xmlns="http://www.w3.org/2000/svg" width="180.36" height="783.984" viewBox="0 0 180.36 783.984">
  <g id="Group_80" data-name="Group 80" transform="translate(3215.758 -4552.946)">
    <path id="Path_39" data-name="Path 39" d="M-3247.712,4549.964h20v129.643c0,13,1,26.328,1.665,37.661h-20.663l-1-24.663-.665-.668c-11.665,20.663-30.663,30.329-52.323,30.329-54.658,0-58.989-48.324-58.989-67.651v-104.65h20v107.981c0,28.994,16.663,45.992,43.991,45.992,32.994,0,47.99-27.663,47.99-57.659Z" transform="translate(190.651 2.983)" fill="#161615"/>
    <path id="Path_40" data-name="Path 40" d="M-3333.9,4642.983v107.645c0,16.331,3.667,36.994,35.661,36.994,15.663,0,30.328-5.331,39.326-18.662,7-10,7-23,7-31.329v-94.647h32.328v135.975c0,3.333.668,22,1,31.326h-32.66l-.668-28.661c-6,11.664-17.328,30.326-53.321,30.326-41.325,0-60.656-23.661-60.656-56.653V4642.983Z" transform="translate(182.261 114.85)" fill="#161615"/>
    <path id="Path_41" data-name="Path 41" d="M-3322.105,4735.778v100.314c0,14.666,0,36.994,26.328,36.994,31.66,0,31.66-23.663,31.66-52.326v-84.982h50.658v110.98c.666,36.325,1,40.661,1,44.991.332,4.667.665,7.665,1.333,12.33h-47.991l-1.667-22.329c-5,7.333-17.664,26.661-49.656,26.661-22.664,0-41.326-10.33-50.658-22.66-11-13.666-11-36.995-11-45.328V4735.778Z" transform="translate(173.846 226.451)" fill="#161615"/>
    <path id="Path_42" data-name="Path 42" d="M-3317.187,4828.576v97.649c0,9.33,0,32.659,25,32.659,26.328,0,26.328-24,26.328-33.327v-96.981h62.654v138.31c.668,14.328.668,15.995,1,28.993h-61.654l-1.335-26c-17,26.994-37.993,29-52.656,29-57.988,0-61.656-43.994-61.656-75.986v-94.316Z" transform="translate(163.753 338.051)" fill="#161615"/>
  </g>
</svg>
