<?xml version="1.0" encoding="utf-8"?>
<!-- Generator: Adobe Illustrator 24.0.1, SVG Export Plug-In . SVG Version: 6.00 Build 0)  -->
<svg version="1.1" id="Livello_1" xmlns="http://www.w3.org/2000/svg" xmlns:xlink="http://www.w3.org/1999/xlink" x="0px" y="0px"
	 viewBox="0 0 1350.5 288.9" style="enable-background:new 0 0 1350.5 288.9;" xml:space="preserve">
<style type="text/css">
	.st0{enable-background:new    ;}
	.st1{fill:#E03230;}
</style>
<g class="st0">
	<path class="st1" d="M242,0v171c0,21.3-3.1,39.5-9.2,54.5c-6.2,15-14.6,27.2-25.4,36.7c-10.8,9.5-23.5,16.3-38,20.5
		c-14.6,4.2-30.1,6.3-46.6,6.3c-16.5,0-31.9-2.1-46.3-6.3c-14.4-4.2-27-11-37.8-20.5c-10.8-9.5-19.3-21.7-25.4-36.7
		C7.1,210.5,4,192.3,4,171V0h54.5v151.2c0,15.6,1,29.2,2.9,40.7c1.9,11.6,5.3,21.1,10.1,28.6c4.8,7.5,11.3,13,19.6,16.7
		c8.2,3.6,18.8,5.4,31.7,5.4c12.9,0,23.5-1.8,31.7-5.4c8.2-3.6,14.9-9.1,19.8-16.7c4.9-7.5,8.4-16.9,10.3-28.3
		c1.9-11.4,2.9-24.9,2.9-40.5V0H242z"/>
	<path class="st1" d="M391.9,82.3c24.9,0,43.4,7.2,55.6,21.6c12.2,14.4,18.2,33.2,18.2,56.2v123.3h-52.2V168.3
		c0-13.2-2.8-23.7-8.3-31.5c-5.6-7.8-14.6-11.7-27.2-11.7c-5.7,0-11.4,1.1-17.1,3.4c-5.7,2.2-10.8,5.4-15.3,9.5s-8.1,9-10.8,14.9
		c-2.7,5.8-4.1,12.4-4.1,19.6v111.2h-52.2V87.3h45.9l6.3,35.5c4.8-11.7,13.1-21.4,24.8-29C367.2,86.2,379.3,82.3,391.9,82.3z"/>
	<path class="st1" d="M510.7,8.5h53.1v54.9h-53.1V8.5z M563.4,87.3h-52.2v196.2h52.2V87.3z"/>
	<path class="st1" d="M588.6,87.3h54l52.7,144.9h1.8l51.8-144.9h54l-77.4,196.2H666L588.6,87.3z"/>
	<path class="st1" d="M909.4,244.8c9.9,0,19.2-1.9,27.9-5.8c8.7-3.9,15.3-10.6,19.8-20.2l46.3,14.4c-3.6,9-8.6,17-15.1,23.9
		c-6.5,6.9-13.7,12.8-21.8,17.5c-8.1,4.8-16.8,8.4-26.1,10.8c-9.3,2.4-18.8,3.6-28.3,3.6c-15.6,0-29.9-2.6-42.8-7.9
		c-12.9-5.2-23.8-12.6-32.8-22.1c-9-9.4-15.8-20.8-20.5-34c-4.7-13.2-6.8-27.9-6.5-44.1c0.3-14.4,3-27.7,8.1-39.8
		c5.1-12.2,12.1-22.6,20.9-31.3c8.8-8.7,19.3-15.4,31.3-20.2c12-4.8,25.3-7.2,40-7.2c13.8,0,26.5,2.4,38,7.2
		c11.5,4.8,21.6,11.5,30.1,20s15.2,18.6,20,30.1c4.8,11.6,7.2,24.2,7.2,38v26.5H858.6C864.6,231.3,881.5,244.8,909.4,244.8z
		 M907.6,125.1c-15.3,0-26.6,4.4-34,13.3c-7.4,8.9-11.9,20-13.7,33.5h95c-1.8-13.5-6.5-24.7-14.2-33.5
		C933.1,129.5,922,125.1,907.6,125.1z"/>
	<path class="st1" d="M1154.2,82.3v54c-1.2,0-2.4-0.1-3.6-0.2c-1.2-0.1-2.4-0.2-3.6-0.2c-19.8,0-34.6,5.3-44.5,15.8
		c-9.9,10.5-14.8,25.2-14.8,44.1v87.8h-52.2V87.3h45l7.2,31.5h0.9C1104.1,94.5,1126,82.3,1154.2,82.3z"/>
	<path class="st1" d="M1291.5,166.5c19.8,3.9,34.7,11.2,44.6,21.8c9.9,10.7,14.7,23.8,14.4,39.4c-0.3,11.4-3.1,21-8.3,28.8
		c-5.3,7.8-11.9,14.1-20,18.9c-8.1,4.8-17.1,8.2-27,10.3c-9.9,2.1-19.8,3.2-29.7,3.2c-10.2,0-20.6-1.2-31-3.6
		c-10.5-2.4-20.2-6.1-29.2-11c-9-5-16.8-11.3-23.4-19.1c-6.6-7.8-11.1-17.1-13.5-27.9l45-13c1.2,5.7,3.7,10.6,7.4,14.6
		c3.7,4,8.1,7.4,13.1,9.9c4.9,2.6,10.3,4.4,16,5.4c5.7,1.1,10.9,1.6,15.8,1.6c10.5,0,19.2-1.8,26.1-5.4c6.9-3.6,10.4-7.8,10.4-12.6
		c0-3.6-1-6.4-2.9-8.5c-2-2.1-4.3-3.6-7-4.5c-2.7-0.9-5.7-1.6-9-2c-3.3-0.5-6.3-0.8-9-1.1c-6-0.9-12.1-1.9-18.5-2.9
		c-6.3-1-12.8-2.3-19.3-3.8c-7.8-1.8-15.3-4.2-22.5-7.2c-7.2-3-13.6-6.9-19.1-11.7c-5.6-4.8-10-10.6-13.3-17.5
		c-3.3-6.9-4.9-15.1-4.9-24.8c0-11.1,2.5-20.5,7.4-28.3c5-7.8,11.4-14.1,19.3-18.9c7.9-4.8,16.8-8.3,26.5-10.6
		c9.7-2.2,19.3-3.4,28.6-3.4c10.5,0,20.5,0.8,30.2,2.2c9.6,1.5,18.4,4.2,26.3,8.1c7.9,3.9,14.9,9.4,20.9,16.4
		c6,7.1,10.5,16,13.5,26.8l-45,13c-2.1-7.5-7.2-13.3-15.3-17.3c-8.1-4-18.2-6.1-30.2-6.1c-10.8,0-19.1,1.7-25,5
		c-5.9,3.3-8.8,7.8-8.8,13.5c0,2.7,0.9,5,2.7,7c1.8,2,4.1,3.5,7,4.7c2.8,1.2,5.9,2.1,9,2.7c3.2,0.6,6.1,1.2,8.8,1.8L1291.5,166.5z"
		/>
</g>
</svg>
