<svg xmlns="http://www.w3.org/2000/svg" width="130.975" height="587.613" viewBox="0 0 130.975 587.613">
  <g id="Group_82" data-name="Group 82" transform="translate(2541.602 -4547.484)">
    <path id="Path_47" data-name="Path 47" d="M-2987.786,4547.483v168.3h-17.33v-18.663h-.666c-11.665,14.332-23.663,22-42.325,22-34.661,0-44.326-25.327-44.326-52.656V4547.483h20v115.645c0,4.667-1,39.994,27.993,39.994,27,0,36.661-25.328,36.661-37V4547.483Z" transform="translate(577.159 0)" fill="#161615"/>
    <path id="Path_48" data-name="Path 48" d="M-3009.5,4640.668h27.328v133.308c0,11.665.665,23.331,1.665,34.994H-3009.5v-20.33h-1c-9,15.332-25,23.662-42.658,23.662-29.328,0-45.326-14.662-45.326-43.326V4640.668h27.328v116.646c0,20.33,9.333,33.991,28.664,33.991,14.663,0,32.993-11,32.993-38.991Z" transform="translate(569.881 112.066)" fill="#161615"/>
    <path id="Path_49" data-name="Path 49" d="M-3022.068,4887.642h-.668c-4.665,7.333-10,12.665-16.663,15.663-6.665,3.332-14,4.668-23,4.668-22.328,0-41.993-13.331-41.993-36.661V4736.338h46.991v116.646c0,15,2.667,26,17.665,26s17.663-11,17.663-26V4736.338h46.991v134.974c0,11,.667,22.332,1.665,33.328h-48.656Z" transform="translate(562.785 227.125)" fill="#161615"/>
  </g>
</svg>
